<?xml version="1.0" encoding="UTF-8" standalone="no"?><!-- Generator: Gravit.io --><svg xmlns="http://www.w3.org/2000/svg" xmlns:xlink="http://www.w3.org/1999/xlink" style="isolation:isolate" viewBox="0 0 100 100" width="100pt" height="100pt"><defs><clipPath id="_clipPath_KrMDfOYcPETCvFviDu5KEmNjsvcqbnk4"><rect width="100" height="100"/></clipPath></defs><g clip-path="url(#_clipPath_KrMDfOYcPETCvFviDu5KEmNjsvcqbnk4)"><path d=" M 50 74.955 C 67.781 75.624 89.175 68.414 93.968 60.946 C 94.409 60.259 92.257 57.868 90.968 56.946 Q 89.68 56.023 86.468 54.946 C 86.468 45.375 82.802 36.654 76.798 30.112 C 76.604 29.9 76.781 36.125 76.781 37.313 C 76.781 38.5 75.968 40.875 72.687 40.875 C 69.406 40.875 68.593 38.5 68.593 37.313 C 68.593 36.125 68.906 23.571 68.902 23.601 C 63.507 20.29 57.193 18.332 50.435 18.204 C 50.385 18.197 50.333 18.196 50.282 18.196 C 50.187 18.196 50.093 18.196 50 18.199 C 49.907 18.196 49.813 18.196 49.718 18.196 C 49.688 18.196 49.658 18.197 49.627 18.204 C 42.846 18.32 36.51 20.28 31.098 23.601 C 31.094 23.571 31.407 36.125 31.407 37.313 C 31.407 38.5 30.594 40.875 27.313 40.875 C 24.032 40.875 23.219 38.5 23.219 37.313 C 23.219 36.125 23.396 29.9 23.202 30.112 C 17.198 36.654 13.532 45.375 13.532 54.946 Q 10.368 56.079 9.032 56.946 C 7.695 57.813 5.591 60.259 6.032 60.946 C 10.825 68.414 32.219 75.624 50 74.955 Z " fill="rgb(10,67,123)"/><g><g><path d=" M 55.827 57.742 L 55.18 58.198 L 54.496 58.598 L 53.786 58.945 L 53.047 59.227 L 52.291 59.464 L 51.489 59.619 L 50.66 59.728 L 49.84 59.765 L 49.84 56.922 L 50.332 56.903 L 50.824 56.858 L 51.298 56.767 L 51.753 56.657 L 52.209 56.494 L 52.656 56.32 L 53.075 56.12 L 53.476 55.883 L 50.25 53.514 L 49.84 53.213 L 49.84 51.791 L 52.246 51.791 L 55.38 54.142 L 55.699 53.687 L 55.982 53.213 L 56.237 52.712 L 56.437 52.174 L 56.601 51.618 L 56.711 51.062 L 56.784 50.479 L 56.82 49.878 L 56.774 49.167 L 56.674 48.456 L 56.501 47.8 L 56.264 47.153 L 55.963 46.533 L 55.617 45.95 L 55.225 45.394 L 54.77 44.912 L 54.278 44.447 L 53.74 44.037 L 53.157 43.69 L 52.555 43.389 L 51.908 43.153 L 51.252 42.98 L 50.551 42.87 L 49.84 42.843 L 49.84 40 L 50.35 40.018 L 50.851 40.064 L 51.343 40.127 L 51.835 40.209 L 52.309 40.319 L 52.783 40.446 L 53.239 40.601 L 53.676 40.792 L 54.123 40.975 L 54.542 41.203 L 54.952 41.44 L 55.371 41.685 L 55.745 41.977 L 56.127 42.26 L 56.483 42.57 L 56.82 42.907 L 57.148 43.235 L 57.467 43.599 L 57.749 43.973 L 58.032 44.355 L 58.287 44.766 L 58.524 45.176 L 58.743 45.604 L 58.952 46.041 L 59.125 46.488 L 59.28 46.944 L 59.408 47.417 L 59.517 47.891 L 59.608 48.383 L 59.672 48.884 L 59.709 49.376 L 59.718 49.896 L 59.69 50.734 L 59.581 51.554 L 59.408 52.329 L 59.189 53.104 L 58.889 53.842 L 58.542 54.552 L 58.141 55.236 L 57.686 55.883 L 59.28 57.067 L 60.182 57.778 L 60.492 58.043 L 60.665 58.216 L 60.301 54.762 L 68.575 60.959 L 68.593 61.132 L 62.479 58.453 L 62.989 63.109 L 55.827 57.742 Z  M 49.84 59.765 L 49.32 59.747 L 48.819 59.719 L 48.327 59.655 L 47.844 59.555 L 47.37 59.446 L 46.896 59.318 L 46.432 59.163 L 45.994 58.99 L 45.548 58.781 L 45.129 58.562 L 44.719 58.325 L 44.308 58.079 L 43.926 57.806 L 43.552 57.505 L 43.188 57.195 L 42.851 56.876 L 42.522 56.53 L 42.203 56.165 L 41.921 55.783 L 41.638 55.409 L 41.383 54.999 L 41.146 54.589 L 40.928 54.16 L 40.727 53.723 L 40.554 53.277 L 40.39 52.821 L 40.262 52.347 L 40.153 51.873 L 40.062 51.39 L 39.998 50.907 L 39.962 50.397 L 39.953 49.896 L 39.962 49.376 L 39.998 48.884 L 40.062 48.383 L 40.153 47.891 L 40.262 47.417 L 40.39 46.944 L 40.554 46.488 L 40.727 46.041 L 40.928 45.604 L 41.146 45.176 L 41.383 44.766 L 41.638 44.355 L 41.921 43.973 L 42.203 43.599 L 42.522 43.235 L 42.851 42.907 L 43.188 42.57 L 43.552 42.26 L 43.926 41.977 L 44.308 41.685 L 44.719 41.44 L 45.129 41.203 L 45.548 40.975 L 45.994 40.792 L 46.432 40.601 L 46.896 40.446 L 47.37 40.319 L 47.844 40.209 L 48.327 40.127 L 48.819 40.064 L 49.32 40.018 L 49.84 40 L 49.84 42.843 L 49.12 42.87 L 48.427 42.98 L 47.762 43.153 L 47.115 43.389 L 46.514 43.69 L 45.93 44.037 L 45.393 44.447 L 44.901 44.912 L 44.445 45.394 L 44.053 45.95 L 43.707 46.533 L 43.406 47.153 L 43.169 47.8 L 42.996 48.456 L 42.905 49.167 L 42.869 49.878 L 42.905 50.607 L 42.996 51.299 L 43.169 51.965 L 43.406 52.611 L 43.707 53.231 L 44.053 53.814 L 44.445 54.352 L 44.901 54.853 L 45.393 55.309 L 45.93 55.728 L 46.514 56.074 L 47.115 56.366 L 47.762 56.603 L 48.427 56.785 L 49.12 56.894 L 49.84 56.922 L 49.84 59.765 Z  M 49.84 51.791 L 47.89 51.791 L 49.84 53.213 L 49.84 51.791 Z " fill-rule="evenodd" fill="rgb(255,255,255)"/></g></g></g></svg>