<?xml version="1.0" encoding="UTF-8" standalone="no"?><!-- Generator: Gravit.io --><svg xmlns="http://www.w3.org/2000/svg" xmlns:xlink="http://www.w3.org/1999/xlink" style="isolation:isolate" viewBox="0 0 100 100" width="100pt" height="100pt"><defs><clipPath id="_clipPath_PfEiaiM43VYUQDdSr9OOfa7RxjMuHbqq"><rect width="100" height="100"/></clipPath></defs><g clip-path="url(#_clipPath_PfEiaiM43VYUQDdSr9OOfa7RxjMuHbqq)"><path d=" M 77.724 22.201 C 70.452 14.929 60.784 10.925 50.5 10.925 L 50.5 6.268 C 50.5 5.403 49.564 4.863 48.816 5.295 L 35.342 13.074 C 34.594 13.506 34.594 14.587 35.342 15.019 L 48.816 22.797 C 49.564 23.23 50.5 22.69 50.5 21.825 L 50.5 17.168 C 59.116 17.168 67.216 20.523 73.309 26.616 C 79.402 32.709 82.757 40.809 82.757 49.425 C 82.757 58.041 79.402 66.142 73.309 72.234 C 72.09 73.453 72.09 75.43 73.309 76.649 C 73.919 77.258 74.717 77.563 75.516 77.563 C 76.315 77.563 77.114 77.258 77.724 76.649 C 84.995 69.377 89 59.709 89 49.425 C 89 39.141 84.995 29.473 77.724 22.201 Z " fill="rgb(255,255,255)"/><path d=" M 65.657 83.831 L 52.184 76.052 C 51.436 75.62 50.5 76.161 50.5 77.025 L 50.5 81.682 L 50.5 81.682 C 41.884 81.682 33.784 78.327 27.691 72.234 C 21.598 66.142 18.243 58.041 18.243 49.425 C 18.243 40.809 21.598 32.709 27.691 26.616 C 28.91 25.397 28.91 23.42 27.691 22.201 C 26.472 20.982 24.495 20.982 23.276 22.201 C 16.004 29.473 12 39.142 12 49.425 C 12 59.709 16.004 69.377 23.276 76.649 C 30.548 83.921 40.216 87.925 50.5 87.925 L 50.5 87.925 L 50.5 92.582 C 50.5 93.447 51.436 93.987 52.184 93.555 L 65.657 85.776 C 66.406 85.344 66.406 84.263 65.657 83.831 Z " fill="rgb(255,255,255)"/></g></svg>