<?xml version="1.0" encoding="UTF-8" standalone="no"?><!-- Generator: Gravit.io --><svg xmlns="http://www.w3.org/2000/svg" xmlns:xlink="http://www.w3.org/1999/xlink" style="isolation:isolate" viewBox="0 0 100 100" width="100pt" height="100pt"><defs><clipPath id="_clipPath_XIFuWashnGOdnyU0KVK7dgVWaMA30n7S"><rect width="100" height="100"/></clipPath></defs><g clip-path="url(#_clipPath_XIFuWashnGOdnyU0KVK7dgVWaMA30n7S)"><path d=" M 35.165 53.454 L 35.165 53.454 L 36.513 54.443 L 47.122 62.235 L 45.804 63.014 L 44.425 63.673 L 42.957 64.243 L 41.458 64.783 L 39.96 65.142 L 38.401 65.442 L 36.783 65.591 L 35.165 65.651 L 35.165 65.651 L 32.797 65.562 L 30.52 65.202 L 28.332 64.603 L 26.204 63.823 L 24.226 62.864 L 22.308 61.725 L 20.54 60.347 L 18.922 58.849 L 17.423 57.2 L 16.135 55.432 L 14.996 53.514 L 14.007 51.476 L 13.228 49.348 L 12.658 47.161 L 12.359 44.883 L 12.239 42.486 L 12.359 40.148 L 12.658 37.811 L 13.228 35.653 L 14.007 33.525 L 14.996 31.488 L 16.135 29.57 L 17.423 27.741 L 18.922 26.153 L 20.54 24.625 L 22.308 23.276 L 24.226 22.137 L 26.204 21.148 L 28.332 20.369 L 30.52 19.8 L 32.797 19.44 L 35.165 19.35 L 37.502 19.44 L 39.81 19.8 L 41.968 20.369 L 44.095 21.148 L 46.073 22.137 L 47.991 23.276 L 49.76 24.625 L 51.378 26.153 L 52.876 27.741 L 54.165 29.57 L 55.304 31.488 L 56.293 33.525 L 57.072 35.653 L 57.641 37.811 L 57.971 40.148 L 58.121 42.486 L 58.001 44.464 L 57.761 46.382 L 57.402 48.21 L 56.862 50.038 L 56.203 51.806 L 55.364 53.454 L 54.435 55.012 L 53.386 56.511 L 43.077 48.779 L 42.957 48.779 L 42.957 48.779 L 35.75 48.779 L 28.752 48.779 L 35.165 53.454 L 35.165 53.454 Z  M 35.165 75.002 L 37.862 74.882 L 40.589 74.522 L 43.226 74.013 L 45.714 73.234 L 48.141 72.304 L 50.479 71.166 L 52.727 69.847 L 54.854 68.348 L 78.409 86 L 76.731 70.686 L 96.84 79.497 L 96.78 78.927 L 69.569 58.549 L 70.767 69.907 L 70.198 69.337 L 69.179 68.468 L 66.212 66.131 L 60.968 62.235 L 62.466 60.107 L 63.785 57.859 L 64.924 55.522 L 65.913 53.095 L 66.632 50.547 L 67.201 48 L 67.561 45.303 L 67.651 42.546 L 67.621 40.837 L 67.501 39.219 L 67.291 37.571 L 66.992 35.953 L 66.632 34.395 L 66.212 32.836 L 65.703 31.337 L 65.133 29.869 L 64.444 28.43 L 63.725 27.022 L 62.946 25.673 L 62.107 24.325 L 61.177 23.066 L 60.249 21.838 L 59.199 20.639 L 58.121 19.56 L 57.012 18.451 L 55.843 17.432 L 54.585 16.503 L 53.356 15.544 L 51.977 14.735 L 50.629 13.956 L 49.25 13.207 L 47.782 12.607 L 46.343 11.978 L 44.845 11.468 L 43.286 11.049 L 41.728 10.689 L 40.11 10.419 L 38.491 10.21 L 36.843 10.06 L 35.165 10 L 33.457 10.06 L 31.808 10.21 L 30.19 10.419 L 28.602 10.689 L 27.044 11.049 L 25.485 11.468 L 23.957 11.978 L 22.518 12.607 L 21.05 13.207 L 19.671 13.956 L 18.322 14.735 L 16.974 15.544 L 15.715 16.503 L 14.487 17.432 L 13.288 18.451 L 12.179 19.56 L 11.1 20.639 L 10.051 21.838 L 9.122 23.066 L 8.193 24.325 L 7.354 25.673 L 6.575 27.022 L 5.855 28.43 L 5.196 29.869 L 4.627 31.337 L 4.088 32.836 L 3.668 34.395 L 3.308 35.953 L 3.008 37.571 L 2.799 39.219 L 2.679 40.837 L 2.649 42.546 L 2.679 44.194 L 2.799 45.872 L 3.008 47.461 L 3.308 49.049 L 3.668 50.607 L 4.088 52.166 L 4.627 53.664 L 5.196 55.132 L 5.855 56.571 L 6.575 57.979 L 7.354 59.328 L 8.193 60.677 L 9.122 61.906 L 10.051 63.164 L 11.1 64.363 L 12.179 65.502 L 13.288 66.551 L 14.487 67.569 L 15.715 68.558 L 16.974 69.457 L 18.322 70.267 L 19.671 71.046 L 21.05 71.765 L 22.518 72.454 L 23.957 73.024 L 25.485 73.533 L 27.044 73.952 L 28.602 74.312 L 30.19 74.642 L 31.808 74.852 L 33.457 74.942 L 35.165 75.002 L 35.165 75.002 Z " fill-rule="evenodd" fill="rgb(255,255,255)"/></g></svg>