<?xml version="1.0" encoding="UTF-8" standalone="no"?>
<svg
   xmlns:dc="http://purl.org/dc/elements/1.1/"
   xmlns:cc="http://creativecommons.org/ns#"
   xmlns:rdf="http://www.w3.org/1999/02/22-rdf-syntax-ns#"
   xmlns:svg="http://www.w3.org/2000/svg"
   xmlns="http://www.w3.org/2000/svg"
   viewBox="0 0 258.66666 258.66666"
   height="258.66666"
   width="258.66666"
   xml:space="preserve"
   id="svg2"
   version="1.1"><metadata
     id="metadata8"><rdf:RDF><cc:Work
         rdf:about=""><dc:format>image/svg+xml</dc:format><dc:type
           rdf:resource="http://purl.org/dc/dcmitype/StillImage" /></cc:Work></rdf:RDF></metadata><defs
     id="defs6" /><g
     transform="matrix(1.3333333,0,0,-1.3333333,0,258.66667)"
     id="g10"><g
       transform="scale(0.1)"
       id="g12"><path
         id="path14"
         style="fill:#ffffff;fill-opacity:1;fill-rule:evenodd;stroke:none"
         d="M 2.59766,5.66797 H 1930.1577 V 1933.228 H 2.59766 Z" /><path
         id="path16"
         style="fill:#f79210;fill-opacity:1;fill-rule:evenodd;stroke:none"
         d="m 440.27,809.902 -16.68,-11.75 -17.625,-10.339 -18.328,-8.926 -19.035,-7.289 -19.5,-6.106 -20.68,-3.992 -21.383,-2.824 -21.148,-0.938 v 73.313 l 12.691,0.469 12.688,1.171 12.214,2.352 11.75,2.82 11.75,4.227 11.516,4.469 10.809,5.168 10.336,6.109 -83.18,61.094 -10.574,7.758 v 36.652 h 62.035 l 80.832,-60.625 8.226,11.754 7.282,12.219 6.578,12.921 5.172,13.86 4.226,14.336 2.821,14.332 1.882,15.039 0.938,15.504 -1.176,18.33 -2.586,18.33 -4.461,16.92 -6.109,16.68 -7.758,15.98 -8.93,15.04 -10.101,14.33 -11.75,12.45 -12.688,11.99 -13.863,10.57 -15.039,8.93 -15.508,7.76 -16.684,6.1 -16.917,4.47 -18.094,2.82 -18.328,0.7 v 73.31 l 13.16,-0.46 12.926,-1.18 12.687,-1.64 12.688,-2.12 12.218,-2.82 12.219,-3.29 11.75,-3.99 11.277,-4.93 11.516,-4.71 10.809,-5.87 10.57,-6.11 10.809,-6.34 9.636,-7.52 9.867,-7.29 9.165,-7.99 8.695,-8.69 8.457,-8.46 8.226,-9.4 7.282,-9.63 7.285,-9.87 6.582,-10.58 6.105,-10.57 5.641,-11.04 5.406,-11.28 4.461,-11.52 4,-11.75 3.285,-12.21 2.821,-12.22 2.351,-12.69 1.645,-12.92 0.937,-12.69 0.238,-13.4 -0.707,-21.616 -2.82,-21.145 -4.465,-19.972 -5.636,-19.973 -7.754,-19.035 -8.93,-18.324 -10.34,-17.625 -11.75,-16.684 41.125,-30.543 23.258,-18.332 7.992,-6.813 4.461,-4.464 -9.394,89.054 L 769,726.957 l 0.469,-4.465 -157.664,69.082 13.156,-120.07 z m -154.379,-52.164 -13.391,0.469 -12.926,0.707 -12.687,1.645 -12.453,2.586 -12.219,2.82 -12.219,3.289 -11.984,3.992 -11.282,4.465 -11.511,5.406 -10.809,5.637 -10.574,6.109 -10.574,6.344 -9.871,7.051 -9.629,7.754 -9.403,7.984 -8.691,8.227 -8.461,8.929 -8.2265,9.399 -7.2813,9.871 -7.2851,9.633 -6.5782,10.574 -6.1093,10.574 -5.6407,11.047 -5.1679,11.277 -4.4649,11.512 -4.2304,11.75 -3.2891,12.219 -2.8164,12.219 -2.3555,12.453 -1.6445,12.453 -0.9375,13.16 -0.2344,12.917 0.2344,13.4 0.9375,12.69 1.6445,12.92 2.3555,12.69 2.8164,12.22 3.2891,12.21 4.2304,11.75 4.4649,11.52 5.1679,11.28 5.6407,11.04 6.1093,10.57 6.5782,10.58 7.2851,9.87 7.2813,9.63 8.2265,9.4 8.461,8.46 8.691,8.69 9.403,7.99 9.629,7.29 9.871,7.52 10.574,6.34 10.574,6.11 10.809,5.87 11.511,4.71 11.282,4.93 11.984,3.99 12.219,3.29 12.219,2.82 12.453,2.12 12.687,1.64 12.926,1.18 13.391,0.46 v -73.31 l -18.563,-0.7 -17.855,-2.82 -17.157,-4.47 -16.683,-6.1 -15.508,-7.76 -15.039,-8.93 -13.859,-10.57 -12.692,-11.99 -11.75,-12.45 -10.101,-14.33 -8.93,-15.04 -7.754,-15.98 -6.109,-16.68 -4.465,-16.92 -2.352,-18.33 -0.937,-18.33 0.937,-18.793 2.352,-17.86 4.465,-17.152 6.109,-16.68 7.754,-15.98 8.93,-15.039 10.101,-13.863 11.75,-12.926 12.692,-11.746 13.859,-10.809 15.039,-8.93 15.508,-7.515 16.683,-6.114 17.157,-4.699 17.855,-2.82 18.563,-0.703 z m 0,205.602 h -50.282 l 50.282,-36.652 v 36.652" /><path
         id="path18"
         style="fill:#294f79;fill-opacity:1;fill-rule:evenodd;stroke:none"
         d="m 864.168,1046.75 -30.551,140.05 h 45.117 l 9.395,-65.79 5.406,-37.6 h 0.707 l 14.332,37.13 27.492,66.26 H 981.18 L 882.965,988.953 h -50.52 l 31.723,57.797" /><path
         id="path20"
         style="fill:#294f79;fill-opacity:1;fill-rule:evenodd;stroke:none"
         d="m 707.199,1244.14 -15.508,-81.78 H 769 l 15.508,81.78 h 43 l -39.473,-208.19 h -43.004 l 16.684,88.58 H 684.41 l -16.683,-88.58 h -42.766 l 39.473,208.19 h 42.765" /><path
         id="path22"
         style="fill:#294f79;fill-opacity:1;fill-rule:evenodd;stroke:none"
         d="m 1137.44,1035.95 17.39,90.7 2.35,16.91 2.58,16.69 2.82,26.55 h 37.13 l -3.06,-31.01 h 0.94 l 4.46,7.51 4.94,6.34 5.17,6.11 5.64,4.94 6.11,4 7.05,3.29 7.28,1.64 7.29,0.94 8.22,-0.47 -8.22,-41.82 -6.82,0.23 -4.93,-0.23 -4.94,-0.95 -4.46,-1.64 -3.99,-1.64 -3.76,-2.36 -3.53,-2.82 -6.11,-7.04 -5.4,-7.99 -4.46,-9.4 -3.29,-10.57 -2.36,-11.05 -11.04,-56.86 h -43" /><path
         id="path24"
         style="fill:#294f79;fill-opacity:1;fill-rule:evenodd;stroke:none"
         d="m 1324.25,1189.39 3.52,0.7 9.87,0.47 7.52,-0.47 7.04,-0.94 6.59,-1.65 6.1,-1.87 5.65,-2.83 5.16,-2.81 4.94,-3.76 3.99,-4 3.76,-4.46 3.76,-4.94 2.82,-4.93 1.88,-5.64 2.11,-5.64 1.18,-6.11 0.94,-6.11 0.24,-6.11 -0.24,-10.34 -1.41,-9.63 -1.88,-9.4 -2.82,-8.46 -3.76,-8.69 -4.46,-7.76 -4.94,-7.28 -5.63,-6.82 -6.11,-6.11 -6.82,-5.4 -7.52,-4.7 -7.99,-3.76 -8.22,-3.29 -8.93,-2.35 -6.34,-0.94 v 32.9 l 1.88,0.47 3.99,2.11 3.76,2.35 3.76,3.29 3.05,3.76 5.41,8.46 4.46,9.87 3.29,10.11 1.88,11.04 0.94,10.1 -0.47,5.17 -0.7,5.41 -1.65,5.16 -2.59,4.71 -3.52,3.52 -3.99,3.29 -5.41,1.64 -6.57,0.71 -4.47,-0.24 -3.05,-0.94 z m -12.46,-156.73 h -7.28 l -6.35,1.17 -6.58,1.18 -6.11,2.11 -5.64,2.35 -4.93,2.82 -4.94,3.76 -4.46,3.52 -4,4.71 -3.29,4.46 -3.28,5.17 -2.35,5.64 -2.12,5.87 -1.17,6.11 -0.94,6.35 -0.24,7.05 0.24,9.63 1.41,9.4 1.88,8.93 2.82,8.93 3.75,8.22 4,8.23 4.93,7.28 5.65,6.34 6.1,6.58 7.05,5.41 7.29,4.69 7.98,4.23 8.23,3.29 8.93,2.36 5.88,0.94 v -33.14 l -1.42,-0.46 -4.46,-1.89 -3.52,-2.58 -3.76,-3.05 -3.29,-3.77 -5.64,-8.46 -4.47,-9.86 -2.81,-10.58 -2.12,-10.1 -0.71,-9.87 0.24,-6.58 1.64,-5.64 2.11,-5.17 2.82,-4.46 3.3,-3.76 4.46,-2.35 4.93,-1.65 5.65,-0.93 h 0.46 l 4.47,0.46 2.12,0.71 v -32.9 l -2.59,-0.47 -9.87,-0.23" /><path
         id="path26"
         style="fill:#294f79;fill-opacity:1;fill-rule:evenodd;stroke:none"
         d="m 1142.61,1249.54 -29.61,-156.02 -2.82,-14.57 -2.11,-14.57 -1.65,-14.81 -0.7,-13.62 h -39.24 l 2.11,24.67 h -0.47 l -5.17,-6.82 -5.64,-5.64 -6.11,-4.93 -2.34,-1.64 v 28.43 l 4.69,3.29 4.94,4.46 4.46,6.11 4.47,7.75 3.29,8.93 2.82,10.11 7.99,41.59 -3.53,1.88 -3.99,1.65 -4.94,1.4 -5.87,0.24 -4.7,-0.24 -4.94,-0.94 -4.69,-1.41 v 33.61 l 7.04,1.17 10.58,0.94 10.57,-0.94 5.41,-1.17 5.17,-1.65 11.98,62.74 z m -93.75,-207.95 -3.77,-2.59 -6.57,-2.82 -7.05,-1.88 -6.35,-1.41 -7.05,-0.23 -9.39,0.7 -8.938,2.82 -7.754,4.46 -3.523,3.29 -3.289,3.3 -5.641,8.22 -4.226,9.64 -1.414,5.4 -1.407,6.11 -0.703,12.45 0.465,9.87 1.18,9.87 1.879,9.16 3.285,9.4 3.761,8.69 4.465,8.46 4.938,7.76 6.109,7.28 6.343,6.82 7.52,5.87 7.52,5.17 8.22,4.47 8.93,3.76 9.87,2.35 2.59,0.47 v -33.61 l -0.24,-0.23 -4,-2.35 -4.46,-2.82 -3.76,-3.29 -3.52,-3.76 -3.29,-4.46 -5.64,-8.93 -4.23,-10.58 -2.35,-11.04 -1.18,-10.81 0.24,-6.58 1.41,-6.11 1.41,-4.93 2.58,-4 3.29,-3.29 3.53,-2.35 4.23,-1.64 4.69,-0.47 5.41,0.47 5.16,1.88 0.72,0.47 v -28.43" /><path
         id="path28"
         style="fill:#294f79;fill-opacity:1;fill-rule:evenodd;stroke:none"
         d="m 1292.76,931.855 -19.51,-101.98 -4.46,-26.555 -3.76,-22.32 h -37.83 l 2.82,24.906 -0.23,0.235 -6.12,-6.813 -6.1,-6.109 -6.59,-4.934 -6.57,-4 -6.35,-2.812 -7.05,-2.118 -6.57,-1.175 -6.82,-0.469 -8.46,0.469 -7.75,1.883 -6.58,3.285 -5.64,4.465 -4.46,6.109 -3.3,7.285 -2.11,8.695 -0.71,10.106 0.71,13.156 2.11,14.566 16.22,84.125 h 42.76 l -15.04,-80.832 -1.64,-10.578 -0.71,-9.867 0.71,-6.812 1.17,-3.293 1.65,-2.582 2.11,-2.348 2.82,-1.648 3.29,-0.704 4,-0.468 5.64,0.703 5.87,2.586 5.64,3.996 5.17,5.637 4.93,7.046 4,8.461 3.76,9.399 2.35,11.047 13.63,70.257 h 43" /><path
         id="path30"
         style="fill:#294f79;fill-opacity:1;fill-rule:evenodd;stroke:none"
         d="m 1879.02,785.934 -7.99,-3.289 -9.87,-2.582 -11.75,-1.411 -13.16,-0.941 -6.81,0.469 -6.58,0.707 -6.34,1.176 -5.88,1.64 -5.64,2.582 -5.17,2.824 -4.93,3.289 -3.99,3.524 -4.24,4.465 -3.52,4.468 -3.06,5.403 -2.34,5.168 -2.12,6.109 -1.41,6.11 -0.94,7.046 v 6.817 l 0.47,9.871 1.18,9.633 2.34,8.933 2.82,9.16 4.23,8.458 4.94,7.753 5.17,7.289 6.11,6.809 7.05,6.113 7.28,5.875 7.99,4.465 8.93,3.992 8.93,3.289 9.87,2.352 10.1,1.172 10.57,0.941 8.94,-0.941 8.69,-0.703 7.28,-2.114 5.64,-1.648 -10.58,-32.894 -8.92,2.582 -5.64,0.71 -6.11,0.465 -6.11,-0.465 -5.64,-0.71 -5.4,-1.645 -4.94,-2.113 -4.46,-2.348 -4.47,-3.055 -3.99,-3.527 -3.29,-3.754 -6.11,-8.465 -4.46,-9.867 -2.83,-10.105 -0.7,-10.571 0.23,-7.754 2.12,-6.582 2.35,-5.171 3.76,-4.465 4.46,-3.758 5.17,-2.348 5.88,-1.644 6.1,-0.473 9.17,0.473 8.23,1.644 7.04,2.113 6.12,2.352 0.23,-32.898" /><path
         id="path32"
         style="fill:#294f79;fill-opacity:1;fill-rule:evenodd;stroke:none"
         d="m 1527.26,994.824 h 0.7 l -0.7,-3.289 z m 0,-67.906 5.17,3.055 6.58,2.82 6.35,1.879 7.52,1.644 6.81,0.473 h 5.64 l 5.4,-0.703 4.94,-1.414 4.46,-1.879 4.46,-2.113 3.53,-2.821 3.76,-2.82 2.82,-3.758 5.17,-7.754 3.29,-8.933 2.58,-10.102 0.24,-10.574 -0.71,-15.508 -2.35,-14.097 -4.22,-13.629 -5.65,-11.746 -6.81,-11.282 -8.22,-9.871 -9.4,-8.457 -10.1,-7.285 -11.52,-5.875 -12.45,-4.465 -7.29,-1.64 v 32.187 l 5.17,2.586 4.94,3.996 4.93,4.934 4,5.172 3.99,6.105 3.29,6.109 2.82,6.578 2.12,6.817 1.64,7.051 0.7,6.347 0.47,7.043 -0.47,5.641 -0.7,4.934 -1.64,4.933 -2.59,3.527 -2.82,3.29 -3.53,2.582 -4.22,1.414 -4.47,0.464 -6.34,-0.703 -6.59,-2.582 -0.7,-0.468 z m -81.06,-139.336 39,207.242 h 42.06 v -3.289 l -15.27,-78.715 h 0.94 l 3.52,4.938 4.47,4.465 5.4,3.992 0.94,0.703 V 898.02 l -4.94,-3.528 -5.87,-5.168 -4.7,-7.051 -4.46,-8.222 -3.29,-9.633 -2.82,-11.047 -7.75,-41.355 7.28,-2.586 6.82,-1.172 h 6.57 l 6.58,1.172 6.11,2.586 0.47,0.234 v -32.187 l -5.87,-1.411 -13.86,-1.414 h -14.58 l -15.03,1.649 -15.51,3.289 -16.21,5.406" /><path
         id="path34"
         style="fill:#294f79;fill-opacity:1;fill-rule:evenodd;stroke:none"
         d="m 1758.71,854.313 1.88,11.277 0.94,12.926 -1.17,13.863 -1.41,6.582 -1.88,6.574 -2.82,6.11 -3.76,5.636 -4.47,4.942 -5.64,4.465 -6.57,3.519 -7.29,3.059 -8.93,1.406 -10.1,0.473 -10.34,-0.473 -4.47,-0.703 v -31.016 l 4.47,0.938 h 6.58 l 6.11,-1.641 4.46,-2.82 3.76,-3.762 2.35,-4.465 1.18,-4.937 0.46,-4.696 -0.94,-5.406 -28.43,-3.992 v -27.496 z m -66.03,-76.133 5.41,0.472 14.57,1.879 14.33,3.754 6.35,2.356 6.57,2.816 -3.29,31.488 -6.34,-3.289 -9.87,-3.289 -12.22,-2.351 -6.58,-0.942 h -6.34 l -2.59,0.235 z m 0,155.789 -5.16,-0.703 -8.93,-2.586 -8.7,-3.528 -7.75,-4.464 -7.28,-4.93 -6.59,-5.875 -5.64,-6.348 -5.63,-7.047 -4.47,-7.285 -3.99,-7.988 -3.29,-8.227 -2.59,-8.222 -1.88,-8.457 -0.94,-8.461 -0.23,-8.696 0.7,-13.859 1.18,-6.348 2.11,-6.109 2.11,-5.406 2.83,-5.168 3.05,-4.934 3.76,-4.465 4.46,-3.761 4.94,-3.52 5.17,-2.82 5.87,-2.586 6.35,-2.113 7.05,-1.176 7.28,-0.707 8.23,-0.469 7.98,0.469 v 33.129 l -3.99,0.238 -6.11,0.703 -5.64,2.117 -5.4,2.821 -4.47,3.757 -3.29,5.172 -2.35,6.106 -0.94,7.757 32.19,4.696 v 27.496 l -29.13,-4.227 0.7,4.696 2.12,5.168 2.82,5.644 3.52,5.399 4.47,5.171 5.87,4.465 6.34,3.762 3.29,0.703 v 31.016" /><path
         id="path36"
         style="fill:#294f79;fill-opacity:1;fill-rule:evenodd;stroke:none"
         d="m 1023,991.535 1.65,0.473 13.4,0.703 10.57,-0.703 9.87,-1.414 8.93,-2.348 7.99,-2.816 7.52,-4 6.81,-4.461 6.11,-4.934 5.64,-5.406 4.93,-6.578 3.99,-6.582 3.3,-7.281 2.82,-7.29 2.58,-8.218 1.64,-7.992 0.71,-8.219 0.47,-8.465 -0.47,-8.691 -1.17,-8.93 -1.65,-8.227 -2.11,-7.984 -5.64,-14.805 -6.82,-13.394 -7.75,-11.282 -8.23,-9.863 -8.22,-7.285 -7.52,-4.938 v -0.703 l 10.81,2.348 10.34,1.176 11.28,0.941 h 13.39 L 1111.36,781 h -52.64 l -13.39,-0.469 -9.63,-1.176 -11.05,-1.644 H 1023 v 37.125 l 4.94,1.176 6.11,2.82 5.64,3.758 5.64,4.465 5.4,5.168 4.47,5.64 3.99,6.582 4,7.282 3.29,7.285 2.82,7.754 2.58,7.754 3.29,15.976 0.71,7.754 0.47,7.754 -0.47,8.934 -1.65,8.929 -2.82,8.457 -3.99,8.223 -2.59,3.293 -3.05,3.051 -3.29,3.054 -4.23,2.352 -4.47,2.113 -4.7,1.41 -5.87,0.942 -6.11,0.468 -6.81,-0.941 -3.3,-0.703 z m -15.5,-214.297 -13.867,0.942 -7.281,1.644 -6.817,1.879 -7.047,2.582 -6.582,3.297 -7.047,3.992 -6.109,4.934 -5.875,5.168 -5.402,6.582 -4.938,7.285 -3.992,8.223 -3.289,8.925 -2.82,9.637 -1.176,11.043 -0.942,11.75 0.473,11.984 1.645,11.747 2.113,11.753 3.055,11.278 4.464,11.043 4.938,10.574 5.871,9.867 6.816,9.399 7.75,8.461 8.227,7.753 9.398,6.579 10.106,5.871 11.038,4.703 11.75,3.289 11.04,2.113 v -35.949 l -3.75,-0.938 -6.35,-2.824 -5.63,-3.523 -5.88,-4.461 -5.171,-5.406 -4.938,-6.11 -4.461,-6.578 -3.757,-6.816 -3.528,-7.285 -2.82,-7.754 -2.586,-7.754 -3.285,-15.981 -0.703,-7.515 -0.473,-7.52 0.941,-10.574 1.879,-9.637 3.285,-8.926 4.469,-7.757 2.821,-3.289 3.289,-2.817 3.761,-2.586 3.992,-1.879 4.465,-1.644 4.47,-1.176 5.4,-0.941 5.64,-0.469 6.81,0.941 2.11,0.469 v -37.125 l -15.5,-0.473" /><path
         id="path38"
         style="fill:#294f79;fill-opacity:1;fill-rule:evenodd;stroke:none"
         d="m 1440.55,995.059 -38.76,-44.879 h -28.91 v 3.289 l 26.08,41.59 z M 1372.88,778.18 v 33.129 l 2.58,-0.235 h 6.35 l 6.58,0.942 12.22,2.351 9.87,3.289 6.34,3.289 3.29,-31.488 -6.58,-2.816 -6.34,-2.356 -14.33,-3.754 -14.57,-1.879 z m 0,66.496 v 27.496 l 28.91,3.992 0.46,5.406 -0.46,4.696 -1.18,4.937 -2.35,4.465 -3.76,3.762 -4.46,2.82 -5.64,1.641 h -7.05 l -4.47,-0.938 v 31.016 l 4.47,0.703 10.34,0.473 10.1,-0.473 8.93,-1.406 7.28,-3.059 6.58,-3.519 5.65,-4.465 4.46,-4.942 3.76,-5.636 2.82,-6.11 1.88,-6.574 1.4,-6.582 1.18,-13.863 -0.94,-12.926 -1.64,-11.277 z m 0,105.504 H 1371 l 1.88,3.289 z m 0,-16.211 v -31.016 l -3.29,-0.703 -6.34,-3.762 -5.87,-4.465 -4.47,-5.171 -3.52,-5.399 -2.82,-5.644 -1.65,-5.168 -1.17,-4.696 29.13,4.227 v -27.496 l -32.19,-4.696 1.41,-7.757 1.88,-6.106 3.29,-5.172 4.47,-3.757 5.4,-2.821 5.64,-2.117 6.11,-0.703 3.99,-0.238 V 778.18 l -7.99,-0.469 -8.22,0.469 -7.28,0.707 -7.05,1.176 -6.35,2.113 -5.87,2.586 -5.17,2.82 -4.93,3.52 -4.47,3.761 -3.76,4.465 -3.05,4.934 -3.06,5.168 -1.88,5.406 -2.11,6.109 -1.18,6.348 -0.71,13.859 0.24,8.696 1.17,8.461 1.65,8.457 2.59,8.222 3.29,8.227 3.99,7.988 4.93,7.285 5.17,7.047 5.64,6.348 7.06,5.875 6.81,4.93 8.22,4.464 8.23,3.528 9.16,2.586 4.93,0.703" /></g></g></svg>