<?xml version="1.0" encoding="UTF-8" standalone="no"?><!-- Generator: Gravit.io --><svg xmlns="http://www.w3.org/2000/svg" xmlns:xlink="http://www.w3.org/1999/xlink" style="isolation:isolate" viewBox="0 0 100 100" width="100pt" height="100pt"><defs><clipPath id="_clipPath_d17MTnfH2TiYvOjgbskYsIF4O1JAl0FW"><rect width="100" height="100"/></clipPath></defs><g clip-path="url(#_clipPath_d17MTnfH2TiYvOjgbskYsIF4O1JAl0FW)"><g><g><path d=" M 22.706 58.277 L 21.841 58.887 L 20.926 59.423 L 19.975 59.886 L 18.988 60.264 L 17.976 60.581 L 16.903 60.788 L 15.794 60.935 L 14.697 60.983 L 14.697 57.18 L 15.355 57.156 L 16.014 57.095 L 16.647 56.973 L 17.257 56.827 L 17.866 56.607 L 18.464 56.375 L 19.025 56.107 L 19.561 55.79 L 15.246 52.621 L 14.697 52.218 L 14.697 50.317 L 17.915 50.317 L 22.109 53.462 L 22.536 52.852 L 22.913 52.218 L 23.255 51.548 L 23.523 50.829 L 23.742 50.085 L 23.889 49.342 L 23.986 48.561 L 24.035 47.757 L 23.974 46.806 L 23.84 45.855 L 23.608 44.977 L 23.291 44.112 L 22.889 43.283 L 22.426 42.503 L 21.901 41.759 L 21.292 41.114 L 20.634 40.492 L 19.914 39.943 L 19.134 39.48 L 18.33 39.077 L 17.464 38.761 L 16.587 38.529 L 15.648 38.383 L 14.697 38.346 L 14.697 34.543 L 15.38 34.567 L 16.05 34.628 L 16.708 34.713 L 17.367 34.823 L 18.001 34.969 L 18.635 35.14 L 19.244 35.347 L 19.829 35.603 L 20.427 35.847 L 20.987 36.152 L 21.536 36.469 L 22.096 36.798 L 22.596 37.188 L 23.108 37.566 L 23.584 37.981 L 24.035 38.431 L 24.474 38.87 L 24.9 39.358 L 25.278 39.858 L 25.656 40.37 L 25.997 40.918 L 26.314 41.467 L 26.607 42.04 L 26.887 42.625 L 27.119 43.222 L 27.326 43.832 L 27.497 44.465 L 27.643 45.099 L 27.765 45.758 L 27.85 46.428 L 27.899 47.086 L 27.911 47.782 L 27.875 48.903 L 27.728 50 L 27.497 51.036 L 27.204 52.072 L 26.802 53.06 L 26.339 54.01 L 25.802 54.925 L 25.193 55.79 L 27.326 57.375 L 28.533 58.326 L 28.947 58.679 L 29.179 58.911 L 28.692 54.291 L 39.76 62.58 L 39.785 62.812 L 31.605 59.228 L 32.288 65.457 L 22.706 58.277 Z  M 14.697 60.983 L 14.002 60.959 L 13.332 60.922 L 12.674 60.837 L 12.027 60.703 L 11.394 60.557 L 10.76 60.386 L 10.138 60.179 L 9.553 59.947 L 8.955 59.667 L 8.395 59.374 L 7.846 59.057 L 7.298 58.728 L 6.785 58.362 L 6.286 57.96 L 5.798 57.546 L 5.347 57.119 L 4.908 56.656 L 4.481 56.168 L 4.104 55.656 L 3.726 55.156 L 3.384 54.608 L 3.068 54.059 L 2.775 53.486 L 2.507 52.901 L 2.275 52.304 L 2.056 51.694 L 1.885 51.06 L 1.739 50.426 L 1.617 49.78 L 1.531 49.134 L 1.483 48.452 L 1.471 47.782 L 1.483 47.086 L 1.531 46.428 L 1.617 45.758 L 1.739 45.099 L 1.885 44.465 L 2.056 43.832 L 2.275 43.222 L 2.507 42.625 L 2.775 42.04 L 3.068 41.467 L 3.384 40.918 L 3.726 40.37 L 4.104 39.858 L 4.481 39.358 L 4.908 38.87 L 5.347 38.431 L 5.798 37.981 L 6.286 37.566 L 6.785 37.188 L 7.298 36.798 L 7.846 36.469 L 8.395 36.152 L 8.955 35.847 L 9.553 35.603 L 10.138 35.347 L 10.76 35.14 L 11.394 34.969 L 12.027 34.823 L 12.674 34.713 L 13.332 34.628 L 14.002 34.567 L 14.697 34.543 L 14.697 38.346 L 13.734 38.383 L 12.808 38.529 L 11.918 38.761 L 11.052 39.077 L 10.248 39.48 L 9.467 39.943 L 8.748 40.492 L 8.09 41.114 L 7.48 41.759 L 6.956 42.503 L 6.493 43.283 L 6.091 44.112 L 5.774 44.977 L 5.542 45.855 L 5.42 46.806 L 5.372 47.757 L 5.42 48.732 L 5.542 49.659 L 5.774 50.549 L 6.091 51.414 L 6.493 52.243 L 6.956 53.023 L 7.48 53.742 L 8.09 54.413 L 8.748 55.022 L 9.467 55.583 L 10.248 56.046 L 11.052 56.436 L 11.918 56.753 L 12.808 56.997 L 13.734 57.143 L 14.697 57.18 L 14.697 60.983 Z  M 14.697 50.317 L 12.088 50.317 L 14.697 52.218 L 14.697 50.317 Z " fill-rule="evenodd" fill="rgb(255,255,255)"/><path d=" M 44.697 45.99 L 43.113 38.724 L 45.453 38.724 L 45.941 42.137 L 46.221 44.088 L 46.258 44.088 L 47.001 42.161 L 48.427 38.724 L 50.768 38.724 L 45.673 48.988 L 43.052 48.988 L 44.697 45.99 Z " fill-rule="evenodd" fill="rgb(255,255,255)"/><path d=" M 36.554 35.749 L 35.75 39.992 L 39.76 39.992 L 40.565 35.749 L 42.796 35.749 L 40.748 46.55 L 38.517 46.55 L 39.382 41.954 L 35.372 41.954 L 34.506 46.55 L 32.288 46.55 L 34.335 35.749 L 36.554 35.749 Z " fill-rule="evenodd" fill="rgb(255,255,255)"/><path d=" M 58.875 46.55 L 59.777 41.845 L 59.899 40.967 L 60.032 40.101 L 60.179 38.724 L 62.105 38.724 L 61.946 40.333 L 61.995 40.333 L 62.226 39.943 L 62.483 39.614 L 62.751 39.297 L 63.044 39.041 L 63.361 38.833 L 63.726 38.663 L 64.104 38.578 L 64.482 38.529 L 64.909 38.553 L 64.482 40.723 L 64.128 40.711 L 63.873 40.723 L 63.616 40.772 L 63.385 40.857 L 63.178 40.942 L 62.983 41.065 L 62.8 41.211 L 62.483 41.576 L 62.203 41.991 L 61.971 42.478 L 61.801 43.027 L 61.678 43.6 L 61.105 46.55 L 58.875 46.55" fill-rule="evenodd" fill="rgb(255,255,255)"/><path d=" M 68.566 38.59 L 68.749 38.553 L 69.261 38.529 L 69.651 38.553 L 70.016 38.602 L 70.358 38.688 L 70.674 38.785 L 70.968 38.931 L 71.235 39.077 L 71.492 39.272 L 71.699 39.48 L 71.894 39.711 L 72.089 39.968 L 72.235 40.223 L 72.332 40.516 L 72.442 40.808 L 72.503 41.125 L 72.552 41.442 L 72.564 41.759 L 72.552 42.296 L 72.479 42.795 L 72.381 43.283 L 72.235 43.722 L 72.04 44.173 L 71.809 44.575 L 71.552 44.953 L 71.26 45.307 L 70.943 45.624 L 70.589 45.904 L 70.199 46.148 L 69.785 46.343 L 69.358 46.514 L 68.895 46.636 L 68.566 46.684 L 68.566 44.977 L 68.664 44.953 L 68.871 44.844 L 69.066 44.722 L 69.261 44.551 L 69.419 44.356 L 69.7 43.917 L 69.931 43.405 L 70.102 42.881 L 70.199 42.308 L 70.248 41.784 L 70.224 41.516 L 70.187 41.235 L 70.102 40.967 L 69.967 40.723 L 69.785 40.54 L 69.578 40.37 L 69.297 40.285 L 68.956 40.248 L 68.724 40.26 L 68.566 40.309 L 68.566 38.59 Z  M 67.92 46.721 L 67.542 46.721 L 67.213 46.66 L 66.871 46.599 L 66.554 46.489 L 66.262 46.367 L 66.006 46.221 L 65.75 46.026 L 65.518 45.843 L 65.311 45.599 L 65.14 45.368 L 64.97 45.099 L 64.848 44.807 L 64.738 44.502 L 64.677 44.185 L 64.628 43.856 L 64.616 43.49 L 64.628 42.991 L 64.702 42.503 L 64.799 42.04 L 64.945 41.576 L 65.14 41.15 L 65.348 40.723 L 65.603 40.345 L 65.896 40.016 L 66.213 39.675 L 66.579 39.394 L 66.957 39.151 L 67.371 38.931 L 67.798 38.761 L 68.261 38.638 L 68.566 38.59 L 68.566 40.309 L 68.492 40.333 L 68.261 40.431 L 68.078 40.565 L 67.883 40.723 L 67.713 40.918 L 67.42 41.357 L 67.188 41.869 L 67.042 42.418 L 66.932 42.942 L 66.896 43.454 L 66.908 43.795 L 66.993 44.088 L 67.103 44.356 L 67.249 44.587 L 67.42 44.782 L 67.651 44.904 L 67.907 44.99 L 68.2 45.038 L 68.224 45.038 L 68.456 45.014 L 68.566 44.977 L 68.566 46.684 L 68.432 46.709 L 67.92 46.721" fill-rule="evenodd" fill="rgb(255,255,255)"/><path d=" M 59.143 35.469 L 57.607 43.563 L 57.46 44.319 L 57.351 45.075 L 57.265 45.843 L 57.229 46.55 L 55.193 46.55 L 55.303 45.27 L 55.278 45.27 L 55.01 45.624 L 54.717 45.916 L 54.401 46.172 L 54.279 46.257 L 54.279 44.782 L 54.522 44.612 L 54.779 44.38 L 55.01 44.063 L 55.242 43.661 L 55.413 43.198 L 55.559 42.674 L 55.973 40.516 L 55.79 40.418 L 55.583 40.333 L 55.327 40.26 L 55.023 40.248 L 54.779 40.26 L 54.522 40.309 L 54.279 40.382 L 54.279 38.638 L 54.644 38.578 L 55.193 38.529 L 55.742 38.578 L 56.022 38.638 L 56.29 38.724 L 56.912 35.469 L 59.143 35.469 Z  M 54.279 46.257 L 54.084 46.392 L 53.743 46.538 L 53.377 46.636 L 53.047 46.709 L 52.682 46.721 L 52.195 46.684 L 51.731 46.538 L 51.329 46.307 L 51.146 46.136 L 50.975 45.965 L 50.683 45.538 L 50.463 45.038 L 50.39 44.758 L 50.317 44.441 L 50.281 43.795 L 50.305 43.283 L 50.366 42.771 L 50.463 42.296 L 50.634 41.808 L 50.829 41.357 L 51.061 40.918 L 51.317 40.516 L 51.634 40.138 L 51.963 39.784 L 52.353 39.48 L 52.743 39.212 L 53.169 38.98 L 53.633 38.785 L 54.145 38.663 L 54.279 38.638 L 54.279 40.382 L 54.267 40.394 L 54.059 40.516 L 53.828 40.662 L 53.633 40.833 L 53.45 41.028 L 53.279 41.259 L 52.987 41.723 L 52.767 42.271 L 52.645 42.844 L 52.584 43.405 L 52.597 43.746 L 52.67 44.063 L 52.743 44.319 L 52.877 44.527 L 53.047 44.697 L 53.231 44.819 L 53.45 44.904 L 53.693 44.929 L 53.974 44.904 L 54.242 44.807 L 54.279 44.782 L 54.279 46.257" fill-rule="evenodd" fill="rgb(255,255,255)"/><path d=" M 66.932 51.95 L 65.92 57.241 L 65.689 58.619 L 65.494 59.777 L 63.531 59.777 L 63.678 58.484 L 63.666 58.472 L 63.348 58.826 L 63.032 59.143 L 62.69 59.399 L 62.349 59.606 L 62.019 59.752 L 61.654 59.862 L 61.313 59.923 L 60.959 59.947 L 60.52 59.923 L 60.118 59.825 L 59.777 59.655 L 59.484 59.423 L 59.253 59.106 L 59.082 58.728 L 58.972 58.277 L 58.935 57.753 L 58.972 57.07 L 59.082 56.315 L 59.923 51.95 L 62.141 51.95 L 61.361 56.144 L 61.276 56.693 L 61.239 57.204 L 61.276 57.558 L 61.337 57.729 L 61.422 57.863 L 61.532 57.984 L 61.678 58.07 L 61.849 58.106 L 62.056 58.131 L 62.349 58.094 L 62.653 57.96 L 62.946 57.753 L 63.214 57.46 L 63.47 57.095 L 63.678 56.656 L 63.873 56.168 L 63.994 55.595 L 64.702 51.95 L 66.932 51.95" fill-rule="evenodd" fill="rgb(255,255,255)"/><path d=" M 97.347 59.521 L 96.933 59.691 L 96.42 59.825 L 95.811 59.898 L 95.128 59.947 L 94.775 59.923 L 94.433 59.886 L 94.105 59.825 L 93.8 59.74 L 93.507 59.606 L 93.239 59.46 L 92.983 59.289 L 92.776 59.106 L 92.556 58.874 L 92.373 58.643 L 92.215 58.362 L 92.093 58.094 L 91.983 57.777 L 91.91 57.46 L 91.861 57.095 L 91.861 56.741 L 91.886 56.229 L 91.947 55.729 L 92.068 55.266 L 92.215 54.791 L 92.434 54.352 L 92.69 53.95 L 92.959 53.572 L 93.276 53.218 L 93.641 52.901 L 94.019 52.596 L 94.433 52.365 L 94.897 52.158 L 95.36 51.987 L 95.872 51.865 L 96.396 51.804 L 96.944 51.755 L 97.408 51.804 L 97.859 51.841 L 98.237 51.95 L 98.529 52.036 L 97.98 53.742 L 97.518 53.608 L 97.225 53.572 L 96.908 53.547 L 96.591 53.572 L 96.299 53.608 L 96.018 53.694 L 95.762 53.803 L 95.531 53.925 L 95.299 54.084 L 95.092 54.267 L 94.921 54.461 L 94.604 54.9 L 94.373 55.412 L 94.226 55.937 L 94.19 56.485 L 94.202 56.887 L 94.312 57.229 L 94.433 57.497 L 94.629 57.729 L 94.86 57.924 L 95.128 58.045 L 95.433 58.131 L 95.75 58.155 L 96.225 58.131 L 96.652 58.045 L 97.018 57.936 L 97.335 57.814 L 97.347 59.521" fill-rule="evenodd" fill="rgb(255,255,255)"/><path d=" M 79.098 48.684 L 79.134 48.684 L 79.098 48.854 L 79.098 48.684 Z  M 79.098 52.206 L 79.366 52.048 L 79.708 51.902 L 80.037 51.804 L 80.427 51.719 L 80.78 51.694 L 81.073 51.694 L 81.353 51.731 L 81.61 51.804 L 81.841 51.902 L 82.072 52.011 L 82.255 52.158 L 82.45 52.304 L 82.597 52.499 L 82.865 52.901 L 83.036 53.365 L 83.17 53.889 L 83.182 54.437 L 83.145 55.242 L 83.023 55.973 L 82.804 56.68 L 82.511 57.29 L 82.158 57.875 L 81.731 58.387 L 81.244 58.826 L 80.72 59.204 L 80.122 59.508 L 79.476 59.74 L 79.098 59.825 L 79.098 58.155 L 79.366 58.021 L 79.623 57.814 L 79.878 57.558 L 80.086 57.29 L 80.293 56.973 L 80.464 56.656 L 80.61 56.315 L 80.72 55.961 L 80.805 55.595 L 80.841 55.266 L 80.866 54.9 L 80.841 54.608 L 80.805 54.352 L 80.72 54.096 L 80.585 53.913 L 80.439 53.742 L 80.256 53.608 L 80.037 53.535 L 79.805 53.511 L 79.476 53.547 L 79.134 53.681 L 79.098 53.706 L 79.098 52.206 Z  M 74.893 59.435 L 76.916 48.684 L 79.098 48.684 L 79.098 48.854 L 78.306 52.938 L 78.355 52.938 L 78.537 52.682 L 78.769 52.45 L 79.049 52.243 L 79.098 52.206 L 79.098 53.706 L 78.842 53.889 L 78.537 54.157 L 78.293 54.523 L 78.062 54.949 L 77.891 55.449 L 77.745 56.022 L 77.343 58.167 L 77.721 58.302 L 78.074 58.362 L 78.415 58.362 L 78.757 58.302 L 79.074 58.167 L 79.098 58.155 L 79.098 59.825 L 78.794 59.898 L 78.074 59.972 L 77.318 59.972 L 76.538 59.886 L 75.734 59.715 L 74.893 59.435" fill-rule="evenodd" fill="rgb(255,255,255)"/><path d=" M 91.105 55.973 L 91.203 55.388 L 91.252 54.717 L 91.191 53.998 L 91.118 53.657 L 91.02 53.316 L 90.874 52.999 L 90.679 52.706 L 90.447 52.45 L 90.155 52.218 L 89.814 52.036 L 89.435 51.877 L 88.972 51.804 L 88.448 51.78 L 87.912 51.804 L 87.68 51.841 L 87.68 53.45 L 87.912 53.401 L 88.253 53.401 L 88.57 53.486 L 88.802 53.632 L 88.997 53.828 L 89.118 54.059 L 89.18 54.315 L 89.204 54.559 L 89.155 54.839 L 87.68 55.047 L 87.68 56.473 L 91.105 55.973 Z  M 87.68 59.923 L 87.961 59.898 L 88.716 59.801 L 89.46 59.606 L 89.789 59.484 L 90.13 59.338 L 89.959 57.704 L 89.631 57.875 L 89.118 58.045 L 88.485 58.167 L 88.143 58.216 L 87.814 58.216 L 87.68 58.204 L 87.68 59.923 Z  M 87.68 51.841 L 87.412 51.877 L 86.949 52.011 L 86.498 52.194 L 86.095 52.426 L 85.718 52.682 L 85.376 52.986 L 85.083 53.316 L 84.791 53.681 L 84.559 54.059 L 84.352 54.474 L 84.182 54.9 L 84.047 55.327 L 83.95 55.766 L 83.901 56.205 L 83.889 56.656 L 83.925 57.375 L 83.987 57.704 L 84.096 58.021 L 84.206 58.302 L 84.352 58.57 L 84.511 58.826 L 84.706 59.057 L 84.937 59.252 L 85.193 59.435 L 85.462 59.581 L 85.766 59.715 L 86.095 59.825 L 86.461 59.886 L 86.839 59.923 L 87.266 59.947 L 87.68 59.923 L 87.68 58.204 L 87.473 58.192 L 87.156 58.155 L 86.863 58.045 L 86.583 57.899 L 86.351 57.704 L 86.181 57.436 L 86.059 57.119 L 86.01 56.717 L 87.68 56.473 L 87.68 55.047 L 86.169 55.266 L 86.205 55.022 L 86.315 54.754 L 86.461 54.461 L 86.644 54.181 L 86.876 53.913 L 87.18 53.681 L 87.509 53.486 L 87.68 53.45 L 87.68 51.841" fill-rule="evenodd" fill="rgb(255,255,255)"/><path d=" M 52.938 48.854 L 53.023 48.83 L 53.718 48.793 L 54.267 48.83 L 54.779 48.903 L 55.242 49.025 L 55.656 49.171 L 56.047 49.378 L 56.4 49.61 L 56.717 49.866 L 57.009 50.146 L 57.265 50.488 L 57.472 50.829 L 57.643 51.207 L 57.79 51.585 L 57.924 52.011 L 58.009 52.426 L 58.046 52.852 L 58.07 53.291 L 58.046 53.742 L 57.985 54.206 L 57.899 54.632 L 57.79 55.047 L 57.497 55.815 L 57.143 56.51 L 56.741 57.095 L 56.314 57.607 L 55.888 57.984 L 55.498 58.241 L 55.498 58.277 L 56.059 58.155 L 56.595 58.094 L 57.18 58.045 L 57.875 58.045 L 57.522 59.777 L 54.791 59.777 L 54.096 59.801 L 53.596 59.862 L 53.023 59.947 L 52.938 59.947 L 52.938 58.021 L 53.194 57.96 L 53.511 57.814 L 53.803 57.619 L 54.096 57.387 L 54.376 57.119 L 54.608 56.827 L 54.815 56.485 L 55.023 56.107 L 55.193 55.729 L 55.34 55.327 L 55.473 54.925 L 55.644 54.096 L 55.681 53.694 L 55.705 53.291 L 55.681 52.828 L 55.595 52.365 L 55.449 51.926 L 55.242 51.499 L 55.108 51.329 L 54.949 51.17 L 54.779 51.012 L 54.559 50.89 L 54.327 50.78 L 54.084 50.707 L 53.779 50.658 L 53.462 50.634 L 53.109 50.683 L 52.938 50.719 L 52.938 48.854 Z  M 52.133 59.972 L 51.414 59.923 L 51.036 59.838 L 50.683 59.74 L 50.317 59.606 L 49.976 59.435 L 49.61 59.228 L 49.293 58.972 L 48.988 58.704 L 48.708 58.362 L 48.452 57.984 L 48.245 57.558 L 48.074 57.095 L 47.928 56.595 L 47.867 56.022 L 47.818 55.412 L 47.842 54.791 L 47.928 54.181 L 48.037 53.572 L 48.196 52.986 L 48.427 52.414 L 48.684 51.865 L 48.988 51.353 L 49.342 50.865 L 49.744 50.426 L 50.171 50.024 L 50.658 49.683 L 51.183 49.378 L 51.755 49.134 L 52.365 48.964 L 52.938 48.854 L 52.938 50.719 L 52.743 50.768 L 52.414 50.914 L 52.121 51.097 L 51.816 51.329 L 51.548 51.609 L 51.292 51.926 L 51.061 52.267 L 50.866 52.621 L 50.683 52.999 L 50.536 53.401 L 50.402 53.803 L 50.232 54.632 L 50.195 55.022 L 50.171 55.412 L 50.22 55.961 L 50.317 56.461 L 50.487 56.924 L 50.719 57.326 L 50.866 57.497 L 51.036 57.643 L 51.231 57.777 L 51.438 57.875 L 51.67 57.96 L 51.902 58.021 L 52.182 58.07 L 52.475 58.094 L 52.828 58.045 L 52.938 58.021 L 52.938 59.947 L 52.133 59.972" fill-rule="evenodd" fill="rgb(255,255,255)"/><path d=" M 74.6 48.671 L 72.589 51 L 71.089 51 L 71.089 50.829 L 72.442 48.671 L 74.6 48.671 Z  M 71.089 59.923 L 71.089 58.204 L 71.223 58.216 L 71.552 58.216 L 71.894 58.167 L 72.528 58.045 L 73.04 57.875 L 73.369 57.704 L 73.539 59.338 L 73.198 59.484 L 72.869 59.606 L 72.126 59.801 L 71.37 59.898 L 71.089 59.923 Z  M 71.089 56.473 L 71.089 55.047 L 72.589 54.839 L 72.613 54.559 L 72.589 54.315 L 72.528 54.059 L 72.406 53.828 L 72.211 53.632 L 71.979 53.486 L 71.687 53.401 L 71.321 53.401 L 71.089 53.45 L 71.089 51.841 L 71.321 51.804 L 71.857 51.78 L 72.381 51.804 L 72.845 51.877 L 73.222 52.036 L 73.564 52.218 L 73.857 52.45 L 74.088 52.706 L 74.283 52.999 L 74.429 53.316 L 74.527 53.657 L 74.6 53.998 L 74.661 54.717 L 74.612 55.388 L 74.527 55.973 L 71.089 56.473 Z  M 71.089 51 L 70.991 51 L 71.089 50.829 L 71.089 51 Z  M 71.089 51.841 L 71.089 53.45 L 70.918 53.486 L 70.589 53.681 L 70.285 53.913 L 70.053 54.181 L 69.87 54.461 L 69.724 54.754 L 69.638 55.022 L 69.578 55.266 L 71.089 55.047 L 71.089 56.473 L 69.419 56.717 L 69.492 57.119 L 69.59 57.436 L 69.76 57.704 L 69.992 57.899 L 70.272 58.045 L 70.565 58.155 L 70.882 58.192 L 71.089 58.204 L 71.089 59.923 L 70.674 59.947 L 70.248 59.923 L 69.87 59.886 L 69.505 59.825 L 69.175 59.715 L 68.871 59.581 L 68.602 59.435 L 68.347 59.252 L 68.115 59.057 L 67.92 58.826 L 67.761 58.57 L 67.603 58.302 L 67.505 58.021 L 67.396 57.704 L 67.334 57.375 L 67.298 56.656 L 67.31 56.205 L 67.371 55.766 L 67.456 55.327 L 67.591 54.9 L 67.761 54.474 L 67.968 54.059 L 68.224 53.681 L 68.492 53.316 L 68.785 52.986 L 69.151 52.682 L 69.505 52.426 L 69.931 52.194 L 70.358 52.011 L 70.833 51.877 L 71.089 51.841" fill-rule="evenodd" fill="rgb(255,255,255)"/></g></g></g></svg>