<?xml version="1.0" encoding="UTF-8" standalone="no"?><!-- Generator: Gravit.io --><svg xmlns="http://www.w3.org/2000/svg" xmlns:xlink="http://www.w3.org/1999/xlink" style="isolation:isolate" viewBox="0 0 400 400" width="400pt" height="400pt"><defs><clipPath id="_clipPath_PekwhUFAZ1XG8LUWqJFUXZfh7oD0ze9R"><rect width="400" height="400"/></clipPath></defs><g clip-path="url(#_clipPath_PekwhUFAZ1XG8LUWqJFUXZfh7oD0ze9R)"><path d=" M 0 -0.026 L 0 19.021 L 19.048 19.021 L 19.048 -0.026 L 0 -0.026 Z " fill="rgb(10,67,123)"/><path d=" M 19.048 -0.026 L 19.048 19.021 L 38.095 19.021 L 38.095 -0.026 L 19.048 -0.026 Z " fill="rgb(10,67,123)"/><path d=" M 38.095 -0.026 L 38.095 19.021 L 57.143 19.021 L 57.143 -0.026 L 38.095 -0.026 Z " fill="rgb(10,67,123)"/><path d=" M 57.143 -0.026 L 57.143 19.021 L 76.19 19.021 L 76.19 -0.026 L 57.143 -0.026 Z " fill="rgb(10,67,123)"/><path d=" M 76.19 -0.026 L 76.19 19.021 L 95.238 19.021 L 95.238 -0.026 L 76.19 -0.026 Z " fill="rgb(10,67,123)"/><path d=" M 95.238 -0.026 L 95.238 19.021 L 114.286 19.021 L 114.286 -0.026 L 95.238 -0.026 Z " fill="rgb(10,67,123)"/><path d=" M 114.286 -0.026 L 114.286 19.021 L 133.333 19.021 L 133.333 -0.026 L 114.286 -0.026 Z " fill="rgb(10,67,123)"/><path d=" M 152.381 -0.026 L 152.381 19.021 L 171.429 19.021 L 171.429 -0.026 L 152.381 -0.026 Z " fill="rgb(10,67,123)"/><path d=" M 171.429 -0.026 L 171.429 19.021 L 190.476 19.021 L 190.476 -0.026 L 171.429 -0.026 Z " fill="rgb(10,67,123)"/><path d=" M 228.571 -0.026 L 228.571 19.021 L 247.619 19.021 L 247.619 -0.026 L 228.571 -0.026 Z " fill="rgb(10,67,123)"/><path d=" M 266.667 -0.026 L 266.667 19.021 L 285.714 19.021 L 285.714 -0.026 L 266.667 -0.026 Z " fill="rgb(10,67,123)"/><path d=" M 285.714 -0.026 L 285.714 19.021 L 304.762 19.021 L 304.762 -0.026 L 285.714 -0.026 Z " fill="rgb(10,67,123)"/><path d=" M 304.762 -0.026 L 304.762 19.021 L 323.81 19.021 L 323.81 -0.026 L 304.762 -0.026 Z " fill="rgb(10,67,123)"/><path d=" M 323.81 -0.026 L 323.81 19.021 L 342.857 19.021 L 342.857 -0.026 L 323.81 -0.026 Z " fill="rgb(10,67,123)"/><path d=" M 342.857 -0.026 L 342.857 19.021 L 361.905 19.021 L 361.905 -0.026 L 342.857 -0.026 Z " fill="rgb(10,67,123)"/><path d=" M 361.905 -0.026 L 361.905 19.021 L 380.952 19.021 L 380.952 -0.026 L 361.905 -0.026 Z " fill="rgb(10,67,123)"/><path d=" M 380.952 -0.026 L 380.952 19.021 L 400 19.021 L 400 -0.026 L 380.952 -0.026 Z " fill="rgb(10,67,123)"/><path d=" M 0 19.021 L 0 38.069 L 19.048 38.069 L 19.048 19.021 L 0 19.021 Z " fill="rgb(10,67,123)"/><path d=" M 114.286 19.021 L 114.286 38.069 L 133.333 38.069 L 133.333 19.021 L 114.286 19.021 Z " fill="rgb(10,67,123)"/><path d=" M 171.429 19.021 L 171.429 38.069 L 190.476 38.069 L 190.476 19.021 L 171.429 19.021 Z " fill="rgb(10,67,123)"/><path d=" M 228.571 19.021 L 228.571 38.069 L 247.619 38.069 L 247.619 19.021 L 228.571 19.021 Z " fill="rgb(10,67,123)"/><path d=" M 266.667 19.021 L 266.667 38.069 L 285.714 38.069 L 285.714 19.021 L 266.667 19.021 Z " fill="rgb(10,67,123)"/><path d=" M 380.952 19.021 L 380.952 38.069 L 400 38.069 L 400 19.021 L 380.952 19.021 Z " fill="rgb(10,67,123)"/><path d=" M 0 38.069 L 0 57.116 L 19.048 57.116 L 19.048 38.069 L 0 38.069 Z " fill="rgb(10,67,123)"/><path d=" M 38.095 38.069 L 38.095 57.116 L 57.143 57.116 L 57.143 38.069 L 38.095 38.069 Z " fill="rgb(10,67,123)"/><path d=" M 57.143 38.069 L 57.143 57.116 L 76.19 57.116 L 76.19 38.069 L 57.143 38.069 Z " fill="rgb(10,67,123)"/><path d=" M 76.19 38.069 L 76.19 57.116 L 95.238 57.116 L 95.238 38.069 L 76.19 38.069 Z " fill="rgb(10,67,123)"/><path d=" M 114.286 38.069 L 114.286 57.116 L 133.333 57.116 L 133.333 38.069 L 114.286 38.069 Z " fill="rgb(10,67,123)"/><path d=" M 152.381 38.069 L 152.381 57.116 L 171.429 57.116 L 171.429 38.069 L 152.381 38.069 Z " fill="rgb(10,67,123)"/><path d=" M 190.476 38.069 L 190.476 57.116 L 209.524 57.116 L 209.524 38.069 L 190.476 38.069 Z " fill="rgb(10,67,123)"/><path d=" M 228.571 38.069 L 228.571 57.116 L 247.619 57.116 L 247.619 38.069 L 228.571 38.069 Z " fill="rgb(10,67,123)"/><path d=" M 266.667 38.069 L 266.667 57.116 L 285.714 57.116 L 285.714 38.069 L 266.667 38.069 Z " fill="rgb(10,67,123)"/><path d=" M 304.762 38.069 L 304.762 57.116 L 323.81 57.116 L 323.81 38.069 L 304.762 38.069 Z " fill="rgb(10,67,123)"/><path d=" M 323.81 38.069 L 323.81 57.116 L 342.857 57.116 L 342.857 38.069 L 323.81 38.069 Z " fill="rgb(10,67,123)"/><path d=" M 342.857 38.069 L 342.857 57.116 L 361.905 57.116 L 361.905 38.069 L 342.857 38.069 Z " fill="rgb(10,67,123)"/><path d=" M 380.952 38.069 L 380.952 57.116 L 400 57.116 L 400 38.069 L 380.952 38.069 Z " fill="rgb(10,67,123)"/><path d=" M 0 57.116 L 0 76.164 L 19.048 76.164 L 19.048 57.116 L 0 57.116 Z " fill="rgb(10,67,123)"/><path d=" M 38.095 57.116 L 38.095 76.164 L 57.143 76.164 L 57.143 57.116 L 38.095 57.116 Z " fill="rgb(10,67,123)"/><path d=" M 57.143 57.116 L 57.143 76.164 L 76.19 76.164 L 76.19 57.116 L 57.143 57.116 Z " fill="rgb(10,67,123)"/><path d=" M 76.19 57.116 L 76.19 76.164 L 95.238 76.164 L 95.238 57.116 L 76.19 57.116 Z " fill="rgb(10,67,123)"/><path d=" M 114.286 57.116 L 114.286 76.164 L 133.333 76.164 L 133.333 57.116 L 114.286 57.116 Z " fill="rgb(10,67,123)"/><path d=" M 152.381 57.116 L 152.381 76.164 L 171.429 76.164 L 171.429 57.116 L 152.381 57.116 Z " fill="rgb(10,67,123)"/><path d=" M 209.524 57.116 L 209.524 76.164 L 228.571 76.164 L 228.571 57.116 L 209.524 57.116 Z " fill="rgb(10,67,123)"/><path d=" M 266.667 57.116 L 266.667 76.164 L 285.714 76.164 L 285.714 57.116 L 266.667 57.116 Z " fill="rgb(10,67,123)"/><path d=" M 304.762 57.116 L 304.762 76.164 L 323.81 76.164 L 323.81 57.116 L 304.762 57.116 Z " fill="rgb(10,67,123)"/><path d=" M 323.81 57.116 L 323.81 76.164 L 342.857 76.164 L 342.857 57.116 L 323.81 57.116 Z " fill="rgb(10,67,123)"/><path d=" M 342.857 57.116 L 342.857 76.164 L 361.905 76.164 L 361.905 57.116 L 342.857 57.116 Z " fill="rgb(10,67,123)"/><path d=" M 380.952 57.116 L 380.952 76.164 L 400 76.164 L 400 57.116 L 380.952 57.116 Z " fill="rgb(10,67,123)"/><path d=" M 0 76.164 L 0 95.212 L 19.048 95.212 L 19.048 76.164 L 0 76.164 Z " fill="rgb(10,67,123)"/><path d=" M 38.095 76.164 L 38.095 95.212 L 57.143 95.212 L 57.143 76.164 L 38.095 76.164 Z " fill="rgb(10,67,123)"/><path d=" M 57.143 76.164 L 57.143 95.212 L 76.19 95.212 L 76.19 76.164 L 57.143 76.164 Z " fill="rgb(10,67,123)"/><path d=" M 76.19 76.164 L 76.19 95.212 L 95.238 95.212 L 95.238 76.164 L 76.19 76.164 Z " fill="rgb(10,67,123)"/><path d=" M 114.286 76.164 L 114.286 95.212 L 133.333 95.212 L 133.333 76.164 L 114.286 76.164 Z " fill="rgb(10,67,123)"/><path d=" M 152.381 76.164 L 152.381 95.212 L 171.429 95.212 L 171.429 76.164 L 152.381 76.164 Z " fill="rgb(10,67,123)"/><path d=" M 171.429 76.164 L 171.429 95.212 L 190.476 95.212 L 190.476 76.164 L 171.429 76.164 Z " fill="rgb(10,67,123)"/><path d=" M 190.476 76.164 L 190.476 95.212 L 209.524 95.212 L 209.524 76.164 L 190.476 76.164 Z " fill="rgb(10,67,123)"/><path d=" M 266.667 76.164 L 266.667 95.212 L 285.714 95.212 L 285.714 76.164 L 266.667 76.164 Z " fill="rgb(10,67,123)"/><path d=" M 304.762 76.164 L 304.762 95.212 L 323.81 95.212 L 323.81 76.164 L 304.762 76.164 Z " fill="rgb(10,67,123)"/><path d=" M 323.81 76.164 L 323.81 95.212 L 342.857 95.212 L 342.857 76.164 L 323.81 76.164 Z " fill="rgb(10,67,123)"/><path d=" M 342.857 76.164 L 342.857 95.212 L 361.905 95.212 L 361.905 76.164 L 342.857 76.164 Z " fill="rgb(10,67,123)"/><path d=" M 380.952 76.164 L 380.952 95.212 L 400 95.212 L 400 76.164 L 380.952 76.164 Z " fill="rgb(10,67,123)"/><path d=" M 0 95.212 L 0 114.259 L 19.048 114.259 L 19.048 95.212 L 0 95.212 Z " fill="rgb(10,67,123)"/><path d=" M 114.286 95.212 L 114.286 114.259 L 133.333 114.259 L 133.333 95.212 L 114.286 95.212 Z " fill="rgb(10,67,123)"/><path d=" M 266.667 95.212 L 266.667 114.259 L 285.714 114.259 L 285.714 95.212 L 266.667 95.212 Z " fill="rgb(10,67,123)"/><path d=" M 380.952 95.212 L 380.952 114.259 L 400 114.259 L 400 95.212 L 380.952 95.212 Z " fill="rgb(10,67,123)"/><path d=" M 0 114.259 L 0 133.307 L 19.048 133.307 L 19.048 114.259 L 0 114.259 Z " fill="rgb(10,67,123)"/><path d=" M 19.048 114.259 L 19.048 133.307 L 38.095 133.307 L 38.095 114.259 L 19.048 114.259 Z " fill="rgb(10,67,123)"/><path d=" M 38.095 114.259 L 38.095 133.307 L 57.143 133.307 L 57.143 114.259 L 38.095 114.259 Z " fill="rgb(10,67,123)"/><path d=" M 57.143 114.259 L 57.143 133.307 L 76.19 133.307 L 76.19 114.259 L 57.143 114.259 Z " fill="rgb(10,67,123)"/><path d=" M 76.19 114.259 L 76.19 133.307 L 95.238 133.307 L 95.238 114.259 L 76.19 114.259 Z " fill="rgb(10,67,123)"/><path d=" M 95.238 114.259 L 95.238 133.307 L 114.286 133.307 L 114.286 114.259 L 95.238 114.259 Z " fill="rgb(10,67,123)"/><path d=" M 114.286 114.259 L 114.286 133.307 L 133.333 133.307 L 133.333 114.259 L 114.286 114.259 Z " fill="rgb(10,67,123)"/><path d=" M 152.381 114.259 L 152.381 133.307 L 171.429 133.307 L 171.429 114.259 L 152.381 114.259 Z " fill="rgb(10,67,123)"/><path d=" M 190.476 114.259 L 190.476 133.307 L 209.524 133.307 L 209.524 114.259 L 190.476 114.259 Z " fill="rgb(10,67,123)"/><path d=" M 228.571 114.259 L 228.571 133.307 L 247.619 133.307 L 247.619 114.259 L 228.571 114.259 Z " fill="rgb(10,67,123)"/><path d=" M 266.667 114.259 L 266.667 133.307 L 285.714 133.307 L 285.714 114.259 L 266.667 114.259 Z " fill="rgb(10,67,123)"/><path d=" M 285.714 114.259 L 285.714 133.307 L 304.762 133.307 L 304.762 114.259 L 285.714 114.259 Z " fill="rgb(10,67,123)"/><path d=" M 304.762 114.259 L 304.762 133.307 L 323.81 133.307 L 323.81 114.259 L 304.762 114.259 Z " fill="rgb(10,67,123)"/><path d=" M 323.81 114.259 L 323.81 133.307 L 342.857 133.307 L 342.857 114.259 L 323.81 114.259 Z " fill="rgb(10,67,123)"/><path d=" M 342.857 114.259 L 342.857 133.307 L 361.905 133.307 L 361.905 114.259 L 342.857 114.259 Z " fill="rgb(10,67,123)"/><path d=" M 361.905 114.259 L 361.905 133.307 L 380.952 133.307 L 380.952 114.259 L 361.905 114.259 Z " fill="rgb(10,67,123)"/><path d=" M 380.952 114.259 L 380.952 133.307 L 400 133.307 L 400 114.259 L 380.952 114.259 Z " fill="rgb(10,67,123)"/><path d=" M 171.429 133.307 L 171.429 152.355 L 190.476 152.355 L 190.476 133.307 L 171.429 133.307 Z " fill="rgb(10,67,123)"/><path d=" M 190.476 133.307 L 190.476 152.355 L 209.524 152.355 L 209.524 133.307 L 190.476 133.307 Z " fill="rgb(10,67,123)"/><path d=" M 0 152.355 L 0 171.402 L 19.048 171.402 L 19.048 152.355 L 0 152.355 Z " fill="rgb(10,67,123)"/><path d=" M 19.048 152.355 L 19.048 171.402 L 38.095 171.402 L 38.095 152.355 L 19.048 152.355 Z " fill="rgb(10,67,123)"/><path d=" M 38.095 152.355 L 38.095 171.402 L 57.143 171.402 L 57.143 152.355 L 38.095 152.355 Z " fill="rgb(10,67,123)"/><path d=" M 57.143 152.355 L 57.143 171.402 L 76.19 171.402 L 76.19 152.355 L 57.143 152.355 Z " fill="rgb(10,67,123)"/><path d=" M 114.286 152.355 L 114.286 171.402 L 133.333 171.402 L 133.333 152.355 L 114.286 152.355 Z " fill="rgb(10,67,123)"/><path d=" M 152.381 152.355 L 152.381 171.402 L 171.429 171.402 L 171.429 152.355 L 152.381 152.355 Z " fill="rgb(10,67,123)"/><path d=" M 190.476 152.355 L 190.476 171.402 L 209.524 171.402 L 209.524 152.355 L 190.476 152.355 Z " fill="rgb(10,67,123)"/><path d=" M 247.619 152.355 L 247.619 171.402 L 266.667 171.402 L 266.667 152.355 L 247.619 152.355 Z " fill="rgb(10,67,123)"/><path d=" M 304.762 152.355 L 304.762 171.402 L 323.81 171.402 L 323.81 152.355 L 304.762 152.355 Z " fill="rgb(10,67,123)"/><path d=" M 323.81 152.355 L 323.81 171.402 L 342.857 171.402 L 342.857 152.355 L 323.81 152.355 Z " fill="rgb(10,67,123)"/><path d=" M 342.857 152.355 L 342.857 171.402 L 361.905 171.402 L 361.905 152.355 L 342.857 152.355 Z " fill="rgb(10,67,123)"/><path d=" M 380.952 152.355 L 380.952 171.402 L 400 171.402 L 400 152.355 L 380.952 152.355 Z " fill="rgb(10,67,123)"/><path d=" M 19.048 171.402 L 19.048 190.45 L 38.095 190.45 L 38.095 171.402 L 19.048 171.402 Z " fill="rgb(10,67,123)"/><path d=" M 38.095 171.402 L 38.095 190.45 L 57.143 190.45 L 57.143 171.402 L 38.095 171.402 Z " fill="rgb(10,67,123)"/><path d=" M 57.143 171.402 L 57.143 190.45 L 76.19 190.45 L 76.19 171.402 L 57.143 171.402 Z " fill="rgb(10,67,123)"/><path d=" M 76.19 171.402 L 76.19 190.45 L 95.238 190.45 L 95.238 171.402 L 76.19 171.402 Z " fill="rgb(10,67,123)"/><path d=" M 95.238 171.402 L 95.238 190.45 L 114.286 190.45 L 114.286 171.402 L 95.238 171.402 Z " fill="rgb(10,67,123)"/><path d=" M 152.381 171.402 L 152.381 190.45 L 171.429 190.45 L 171.429 171.402 L 152.381 171.402 Z " fill="rgb(10,67,123)"/><path d=" M 190.476 171.402 L 190.476 190.45 L 209.524 190.45 L 209.524 171.402 L 190.476 171.402 Z " fill="rgb(10,67,123)"/><path d=" M 228.571 171.402 L 228.571 190.45 L 247.619 190.45 L 247.619 171.402 L 228.571 171.402 Z " fill="rgb(10,67,123)"/><path d=" M 247.619 171.402 L 247.619 190.45 L 266.667 190.45 L 266.667 171.402 L 247.619 171.402 Z " fill="rgb(10,67,123)"/><path d=" M 304.762 171.402 L 304.762 190.45 L 323.81 190.45 L 323.81 171.402 L 304.762 171.402 Z " fill="rgb(10,67,123)"/><path d=" M 361.905 171.402 L 361.905 190.45 L 380.952 190.45 L 380.952 171.402 L 361.905 171.402 Z " fill="rgb(10,67,123)"/><path d=" M 380.952 171.402 L 380.952 190.45 L 400 190.45 L 400 171.402 L 380.952 171.402 Z " fill="rgb(10,67,123)"/><path d=" M 57.143 190.45 L 57.143 209.497 L 76.19 209.497 L 76.19 190.45 L 57.143 190.45 Z " fill="rgb(10,67,123)"/><path d=" M 114.286 190.45 L 114.286 209.497 L 133.333 209.497 L 133.333 190.45 L 114.286 190.45 Z " fill="rgb(10,67,123)"/><path d=" M 152.381 190.45 L 152.381 209.497 L 171.429 209.497 L 171.429 190.45 L 152.381 190.45 Z " fill="rgb(10,67,123)"/><path d=" M 171.429 190.45 L 171.429 209.497 L 190.476 209.497 L 190.476 190.45 L 171.429 190.45 Z " fill="rgb(10,67,123)"/><path d=" M 190.476 190.45 L 190.476 209.497 L 209.524 209.497 L 209.524 190.45 L 190.476 190.45 Z " fill="rgb(10,67,123)"/><path d=" M 228.571 190.45 L 228.571 209.497 L 247.619 209.497 L 247.619 190.45 L 228.571 190.45 Z " fill="rgb(10,67,123)"/><path d=" M 247.619 190.45 L 247.619 209.497 L 266.667 209.497 L 266.667 190.45 L 247.619 190.45 Z " fill="rgb(10,67,123)"/><path d=" M 266.667 190.45 L 266.667 209.497 L 285.714 209.497 L 285.714 190.45 L 266.667 190.45 Z " fill="rgb(10,67,123)"/><path d=" M 285.714 190.45 L 285.714 209.497 L 304.762 209.497 L 304.762 190.45 L 285.714 190.45 Z " fill="rgb(10,67,123)"/><path d=" M 361.905 190.45 L 361.905 209.497 L 380.952 209.497 L 380.952 190.45 L 361.905 190.45 Z " fill="rgb(10,67,123)"/><path d=" M 380.952 190.45 L 380.952 209.497 L 400 209.497 L 400 190.45 L 380.952 190.45 Z " fill="rgb(10,67,123)"/><path d=" M 19.048 209.497 L 19.048 228.545 L 38.095 228.545 L 38.095 209.497 L 19.048 209.497 Z " fill="rgb(10,67,123)"/><path d=" M 38.095 209.497 L 38.095 228.545 L 57.143 228.545 L 57.143 209.497 L 38.095 209.497 Z " fill="rgb(10,67,123)"/><path d=" M 76.19 209.497 L 76.19 228.545 L 95.238 228.545 L 95.238 209.497 L 76.19 209.497 Z " fill="rgb(10,67,123)"/><path d=" M 133.333 209.497 L 133.333 228.545 L 152.381 228.545 L 152.381 209.497 L 133.333 209.497 Z " fill="rgb(10,67,123)"/><path d=" M 152.381 209.497 L 152.381 228.545 L 171.429 228.545 L 171.429 209.497 L 152.381 209.497 Z " fill="rgb(10,67,123)"/><path d=" M 171.429 209.497 L 171.429 228.545 L 190.476 228.545 L 190.476 209.497 L 171.429 209.497 Z " fill="rgb(10,67,123)"/><path d=" M 228.571 209.497 L 228.571 228.545 L 247.619 228.545 L 247.619 209.497 L 228.571 209.497 Z " fill="rgb(10,67,123)"/><path d=" M 285.714 209.497 L 285.714 228.545 L 304.762 228.545 L 304.762 209.497 L 285.714 209.497 Z " fill="rgb(10,67,123)"/><path d=" M 304.762 209.497 L 304.762 228.545 L 323.81 228.545 L 323.81 209.497 L 304.762 209.497 Z " fill="rgb(10,67,123)"/><path d=" M 323.81 209.497 L 323.81 228.545 L 342.857 228.545 L 342.857 209.497 L 323.81 209.497 Z " fill="rgb(10,67,123)"/><path d=" M 361.905 209.497 L 361.905 228.545 L 380.952 228.545 L 380.952 209.497 L 361.905 209.497 Z " fill="rgb(10,67,123)"/><path d=" M 19.048 228.545 L 19.048 247.593 L 38.095 247.593 L 38.095 228.545 L 19.048 228.545 Z " fill="rgb(10,67,123)"/><path d=" M 76.19 228.545 L 76.19 247.593 L 95.238 247.593 L 95.238 228.545 L 76.19 228.545 Z " fill="rgb(10,67,123)"/><path d=" M 95.238 228.545 L 95.238 247.593 L 114.286 247.593 L 114.286 228.545 L 95.238 228.545 Z " fill="rgb(10,67,123)"/><path d=" M 114.286 228.545 L 114.286 247.593 L 133.333 247.593 L 133.333 228.545 L 114.286 228.545 Z " fill="rgb(10,67,123)"/><path d=" M 152.381 228.545 L 152.381 247.593 L 171.429 247.593 L 171.429 228.545 L 152.381 228.545 Z " fill="rgb(10,67,123)"/><path d=" M 209.524 228.545 L 209.524 247.593 L 228.571 247.593 L 228.571 228.545 L 209.524 228.545 Z " fill="rgb(10,67,123)"/><path d=" M 266.667 228.545 L 266.667 247.593 L 285.714 247.593 L 285.714 228.545 L 266.667 228.545 Z " fill="rgb(10,67,123)"/><path d=" M 285.714 228.545 L 285.714 247.593 L 304.762 247.593 L 304.762 228.545 L 285.714 228.545 Z " fill="rgb(10,67,123)"/><path d=" M 380.952 228.545 L 380.952 247.593 L 400 247.593 L 400 228.545 L 380.952 228.545 Z " fill="rgb(10,67,123)"/><path d=" M 152.381 247.593 L 152.381 266.64 L 171.429 266.64 L 171.429 247.593 L 152.381 247.593 Z " fill="rgb(10,67,123)"/><path d=" M 171.429 247.593 L 171.429 266.64 L 190.476 266.64 L 190.476 247.593 L 171.429 247.593 Z " fill="rgb(10,67,123)"/><path d=" M 190.476 247.593 L 190.476 266.64 L 209.524 266.64 L 209.524 247.593 L 190.476 247.593 Z " fill="rgb(10,67,123)"/><path d=" M 209.524 247.593 L 209.524 266.64 L 228.571 266.64 L 228.571 247.593 L 209.524 247.593 Z " fill="rgb(10,67,123)"/><path d=" M 247.619 247.593 L 247.619 266.64 L 266.667 266.64 L 266.667 247.593 L 247.619 247.593 Z " fill="rgb(10,67,123)"/><path d=" M 266.667 247.593 L 266.667 266.64 L 285.714 266.64 L 285.714 247.593 L 266.667 247.593 Z " fill="rgb(10,67,123)"/><path d=" M 285.714 247.593 L 285.714 266.64 L 304.762 266.64 L 304.762 247.593 L 285.714 247.593 Z " fill="rgb(10,67,123)"/><path d=" M 380.952 247.593 L 380.952 266.64 L 400 266.64 L 400 247.593 L 380.952 247.593 Z " fill="rgb(10,67,123)"/><path d=" M 0 266.64 L 0 285.688 L 19.048 285.688 L 19.048 266.64 L 0 266.64 Z " fill="rgb(10,67,123)"/><path d=" M 19.048 266.64 L 19.048 285.688 L 38.095 285.688 L 38.095 266.64 L 19.048 266.64 Z " fill="rgb(10,67,123)"/><path d=" M 38.095 266.64 L 38.095 285.688 L 57.143 285.688 L 57.143 266.64 L 38.095 266.64 Z " fill="rgb(10,67,123)"/><path d=" M 57.143 266.64 L 57.143 285.688 L 76.19 285.688 L 76.19 266.64 L 57.143 266.64 Z " fill="rgb(10,67,123)"/><path d=" M 76.19 266.64 L 76.19 285.688 L 95.238 285.688 L 95.238 266.64 L 76.19 266.64 Z " fill="rgb(10,67,123)"/><path d=" M 95.238 266.64 L 95.238 285.688 L 114.286 285.688 L 114.286 266.64 L 95.238 266.64 Z " fill="rgb(10,67,123)"/><path d=" M 114.286 266.64 L 114.286 285.688 L 133.333 285.688 L 133.333 266.64 L 114.286 266.64 Z " fill="rgb(10,67,123)"/><path d=" M 171.429 266.64 L 171.429 285.688 L 190.476 285.688 L 190.476 266.64 L 171.429 266.64 Z " fill="rgb(10,67,123)"/><path d=" M 285.714 266.64 L 285.714 285.688 L 304.762 285.688 L 304.762 266.64 L 285.714 266.64 Z " fill="rgb(10,67,123)"/><path d=" M 304.762 266.64 L 304.762 285.688 L 323.81 285.688 L 323.81 266.64 L 304.762 266.64 Z " fill="rgb(10,67,123)"/><path d=" M 0 285.688 L 0 304.735 L 19.048 304.735 L 19.048 285.688 L 0 285.688 Z " fill="rgb(10,67,123)"/><path d=" M 114.286 285.688 L 114.286 304.735 L 133.333 304.735 L 133.333 285.688 L 114.286 285.688 Z " fill="rgb(10,67,123)"/><path d=" M 190.476 285.688 L 190.476 304.735 L 209.524 304.735 L 209.524 285.688 L 190.476 285.688 Z " fill="rgb(10,67,123)"/><path d=" M 209.524 285.688 L 209.524 304.735 L 228.571 304.735 L 228.571 285.688 L 209.524 285.688 Z " fill="rgb(10,67,123)"/><path d=" M 247.619 285.688 L 247.619 304.735 L 266.667 304.735 L 266.667 285.688 L 247.619 285.688 Z " fill="rgb(10,67,123)"/><path d=" M 285.714 285.688 L 285.714 304.735 L 304.762 304.735 L 304.762 285.688 L 285.714 285.688 Z " fill="rgb(10,67,123)"/><path d=" M 323.81 285.688 L 323.81 304.735 L 342.857 304.735 L 342.857 285.688 L 323.81 285.688 Z " fill="rgb(10,67,123)"/><path d=" M 342.857 285.688 L 342.857 304.735 L 361.905 304.735 L 361.905 285.688 L 342.857 285.688 Z " fill="rgb(10,67,123)"/><path d=" M 0 304.735 L 0 323.783 L 19.048 323.783 L 19.048 304.735 L 0 304.735 Z " fill="rgb(10,67,123)"/><path d=" M 38.095 304.735 L 38.095 323.783 L 57.143 323.783 L 57.143 304.735 L 38.095 304.735 Z " fill="rgb(10,67,123)"/><path d=" M 57.143 304.735 L 57.143 323.783 L 76.19 323.783 L 76.19 304.735 L 57.143 304.735 Z " fill="rgb(10,67,123)"/><path d=" M 76.19 304.735 L 76.19 323.783 L 95.238 323.783 L 95.238 304.735 L 76.19 304.735 Z " fill="rgb(10,67,123)"/><path d=" M 114.286 304.735 L 114.286 323.783 L 133.333 323.783 L 133.333 304.735 L 114.286 304.735 Z " fill="rgb(10,67,123)"/><path d=" M 171.429 304.735 L 171.429 323.783 L 190.476 323.783 L 190.476 304.735 L 171.429 304.735 Z " fill="rgb(10,67,123)"/><path d=" M 190.476 304.735 L 190.476 323.783 L 209.524 323.783 L 209.524 304.735 L 190.476 304.735 Z " fill="rgb(10,67,123)"/><path d=" M 209.524 304.735 L 209.524 323.783 L 228.571 323.783 L 228.571 304.735 L 209.524 304.735 Z " fill="rgb(10,67,123)"/><path d=" M 342.857 304.735 L 342.857 323.783 L 361.905 323.783 L 361.905 304.735 L 342.857 304.735 Z " fill="rgb(10,67,123)"/><path d=" M 361.905 304.735 L 361.905 323.783 L 380.952 323.783 L 380.952 304.735 L 361.905 304.735 Z " fill="rgb(10,67,123)"/><path d=" M 0 323.783 L 0 342.831 L 19.048 342.831 L 19.048 323.783 L 0 323.783 Z " fill="rgb(10,67,123)"/><path d=" M 38.095 323.783 L 38.095 342.831 L 57.143 342.831 L 57.143 323.783 L 38.095 323.783 Z " fill="rgb(10,67,123)"/><path d=" M 57.143 323.783 L 57.143 342.831 L 76.19 342.831 L 76.19 323.783 L 57.143 323.783 Z " fill="rgb(10,67,123)"/><path d=" M 76.19 323.783 L 76.19 342.831 L 95.238 342.831 L 95.238 323.783 L 76.19 323.783 Z " fill="rgb(10,67,123)"/><path d=" M 114.286 323.783 L 114.286 342.831 L 133.333 342.831 L 133.333 323.783 L 114.286 323.783 Z " fill="rgb(10,67,123)"/><path d=" M 152.381 323.783 L 152.381 342.831 L 171.429 342.831 L 171.429 323.783 L 152.381 323.783 Z " fill="rgb(10,67,123)"/><path d=" M 228.571 323.783 L 228.571 342.831 L 247.619 342.831 L 247.619 323.783 L 228.571 323.783 Z " fill="rgb(10,67,123)"/><path d=" M 247.619 323.783 L 247.619 342.831 L 266.667 342.831 L 266.667 323.783 L 247.619 323.783 Z " fill="rgb(10,67,123)"/><path d=" M 361.905 323.783 L 361.905 342.831 L 380.952 342.831 L 380.952 323.783 L 361.905 323.783 Z " fill="rgb(10,67,123)"/><path d=" M 0 342.831 L 0 361.878 L 19.048 361.878 L 19.048 342.831 L 0 342.831 Z " fill="rgb(10,67,123)"/><path d=" M 38.095 342.831 L 38.095 361.878 L 57.143 361.878 L 57.143 342.831 L 38.095 342.831 Z " fill="rgb(10,67,123)"/><path d=" M 57.143 342.831 L 57.143 361.878 L 76.19 361.878 L 76.19 342.831 L 57.143 342.831 Z " fill="rgb(10,67,123)"/><path d=" M 76.19 342.831 L 76.19 361.878 L 95.238 361.878 L 95.238 342.831 L 76.19 342.831 Z " fill="rgb(10,67,123)"/><path d=" M 114.286 342.831 L 114.286 361.878 L 133.333 361.878 L 133.333 342.831 L 114.286 342.831 Z " fill="rgb(10,67,123)"/><path d=" M 152.381 342.831 L 152.381 361.878 L 171.429 361.878 L 171.429 342.831 L 152.381 342.831 Z " fill="rgb(10,67,123)"/><path d=" M 171.429 342.831 L 171.429 361.878 L 190.476 361.878 L 190.476 342.831 L 171.429 342.831 Z " fill="rgb(10,67,123)"/><path d=" M 190.476 342.831 L 190.476 361.878 L 209.524 361.878 L 209.524 342.831 L 190.476 342.831 Z " fill="rgb(10,67,123)"/><path d=" M 209.524 342.831 L 209.524 361.878 L 228.571 361.878 L 228.571 342.831 L 209.524 342.831 Z " fill="rgb(10,67,123)"/><path d=" M 228.571 342.831 L 228.571 361.878 L 247.619 361.878 L 247.619 342.831 L 228.571 342.831 Z " fill="rgb(10,67,123)"/><path d=" M 266.667 342.831 L 266.667 361.878 L 285.714 361.878 L 285.714 342.831 L 266.667 342.831 Z " fill="rgb(10,67,123)"/><path d=" M 285.714 342.831 L 285.714 361.878 L 304.762 361.878 L 304.762 342.831 L 285.714 342.831 Z " fill="rgb(10,67,123)"/><path d=" M 0 361.878 L 0 380.926 L 19.048 380.926 L 19.048 361.878 L 0 361.878 Z " fill="rgb(10,67,123)"/><path d=" M 114.286 361.878 L 114.286 380.926 L 133.333 380.926 L 133.333 361.878 L 114.286 361.878 Z " fill="rgb(10,67,123)"/><path d=" M 152.381 361.878 L 152.381 380.926 L 171.429 380.926 L 171.429 361.878 L 152.381 361.878 Z " fill="rgb(10,67,123)"/><path d=" M 171.429 361.878 L 171.429 380.926 L 190.476 380.926 L 190.476 361.878 L 171.429 361.878 Z " fill="rgb(10,67,123)"/><path d=" M 247.619 361.878 L 247.619 380.926 L 266.667 380.926 L 266.667 361.878 L 247.619 361.878 Z " fill="rgb(10,67,123)"/><path d=" M 266.667 361.878 L 266.667 380.926 L 285.714 380.926 L 285.714 361.878 L 266.667 361.878 Z " fill="rgb(10,67,123)"/><path d=" M 285.714 361.878 L 285.714 380.926 L 304.762 380.926 L 304.762 361.878 L 285.714 361.878 Z " fill="rgb(10,67,123)"/><path d=" M 304.762 361.878 L 304.762 380.926 L 323.81 380.926 L 323.81 361.878 L 304.762 361.878 Z " fill="rgb(10,67,123)"/><path d=" M 380.952 361.878 L 380.952 380.926 L 400 380.926 L 400 361.878 L 380.952 361.878 Z " fill="rgb(10,67,123)"/><path d=" M 0 380.926 L 0 399.974 L 19.048 399.974 L 19.048 380.926 L 0 380.926 Z " fill="rgb(10,67,123)"/><path d=" M 19.048 380.926 L 19.048 399.974 L 38.095 399.974 L 38.095 380.926 L 19.048 380.926 Z " fill="rgb(10,67,123)"/><path d=" M 38.095 380.926 L 38.095 399.974 L 57.143 399.974 L 57.143 380.926 L 38.095 380.926 Z " fill="rgb(10,67,123)"/><path d=" M 57.143 380.926 L 57.143 399.974 L 76.19 399.974 L 76.19 380.926 L 57.143 380.926 Z " fill="rgb(10,67,123)"/><path d=" M 76.19 380.926 L 76.19 399.974 L 95.238 399.974 L 95.238 380.926 L 76.19 380.926 Z " fill="rgb(10,67,123)"/><path d=" M 95.238 380.926 L 95.238 399.974 L 114.286 399.974 L 114.286 380.926 L 95.238 380.926 Z " fill="rgb(10,67,123)"/><path d=" M 114.286 380.926 L 114.286 399.974 L 133.333 399.974 L 133.333 380.926 L 114.286 380.926 Z " fill="rgb(10,67,123)"/><path d=" M 152.381 380.926 L 152.381 399.974 L 171.429 399.974 L 171.429 380.926 L 152.381 380.926 Z " fill="rgb(10,67,123)"/><path d=" M 171.429 380.926 L 171.429 399.974 L 190.476 399.974 L 190.476 380.926 L 171.429 380.926 Z " fill="rgb(10,67,123)"/><path d=" M 190.476 380.926 L 190.476 399.974 L 209.524 399.974 L 209.524 380.926 L 190.476 380.926 Z " fill="rgb(10,67,123)"/><path d=" M 209.524 380.926 L 209.524 399.974 L 228.571 399.974 L 228.571 380.926 L 209.524 380.926 Z " fill="rgb(10,67,123)"/><path d=" M 247.619 380.926 L 247.619 399.974 L 266.667 399.974 L 266.667 380.926 L 247.619 380.926 Z " fill="rgb(10,67,123)"/><path d=" M 266.667 380.926 L 266.667 399.974 L 285.714 399.974 L 285.714 380.926 L 266.667 380.926 Z " fill="rgb(10,67,123)"/><path d=" M 285.714 380.926 L 285.714 399.974 L 304.762 399.974 L 304.762 380.926 L 285.714 380.926 Z " fill="rgb(10,67,123)"/><path d=" M 342.857 380.926 L 342.857 399.974 L 361.905 399.974 L 361.905 380.926 L 342.857 380.926 Z " fill="rgb(10,67,123)"/></g></svg>